<?xml version="1.0" encoding="utf-8"?>
<!-- Generator: Adobe Illustrator 18.1.1, SVG Export Plug-In . SVG Version: 6.00 Build 0)  -->
<svg version="1.1" id="svg-source" xmlns="http://www.w3.org/2000/svg" xmlns:xlink="http://www.w3.org/1999/xlink" x="0px" y="0px"
	 viewBox="-10 -59.3 37.3 37" enable-background="new -10 -59.3 37.3 37" xml:space="preserve">
<g id="snowflake-06">
	<path fill="#FFFFFF" d="M16.8-53.2c0.1,0,0.1,0,0.2,0c0.3,0,0.5,0.3,0.5,0.6l0,0.1c0.1-0.1,0.2-0.1,0.3-0.1c0.3,0,0.4,0.2,0.4,0.5
		c0.1,0.2,0.1,0.4,0.1,0.5c0,0.1,0,0.1,0,0.2l0.1-0.1c0.2-0.2,0.4-0.3,0.7-0.5c0.2-0.1,0.6-0.3,0.8,0c0.2,0.2,0.1,0.5,0,0.8
		c-0.1,0.2-0.3,0.5-0.5,0.7l-0.1,0.1c0.1,0,0.1,0,0.2,0c0.2,0,0.4,0,0.5,0.1c0.2,0.1,0.5,0.2,0.5,0.5c0,0.1-0.1,0.2-0.1,0.3l0.1,0
		c0.3,0.1,0.6,0.2,0.6,0.5c0,0.3-0.3,0.5-0.6,0.5c-0.1,0-0.1,0-0.2,0.1c0.3,0.1,0.5,0.2,0.5,0.5c0,0.4-0.4,0.5-0.7,0.6
		c-0.3,0.1-0.7,0.2-1,0.2c-0.2,0-0.4,0-0.6,0c-0.3,0-0.6,0-0.9-0.1c-0.3,0-0.6-0.1-0.8-0.1v-0.3c0.5,0.1,1.2,0.2,1.7,0.2
		c0.9,0,2-0.2,2-0.5c0-0.3-1.1-0.5-2-0.5c-0.5,0-1.2,0.1-1.7,0.2v-0.2l0.7-0.7c0,0.2,1.1,0.4,1.7,0.4c0.6,0,1.5-0.2,1.5-0.4
		s-0.9-0.4-1.5-0.4c-0.5,0-1.3,0.1-1.6,0.2l0.6-0.6c0.2,0.1,0.7,0.2,1,0.2c0.4,0,1-0.1,1-0.3s-0.5-0.2-1-0.2c-0.2,0-0.5,0-0.8,0.1
		l0.2-0.2c0.1-0.1,0.2-0.2,0.3-0.3c0.5-0.5,0.9-1.2,0.8-1.3c-0.1-0.1-0.9,0.3-1.3,0.8c-0.1,0.1-0.2,0.2-0.3,0.3L18-50.7
		c0-0.2,0.1-0.5,0.1-0.8c0-0.4-0.1-1-0.2-1c-0.1,0-0.3,0.5-0.3,1c0,0.3,0.1,0.8,0.2,1l-0.6,0.6c0.1-0.3,0.2-1.1,0.2-1.6
		c0-0.7-0.1-1.5-0.4-1.5c-0.1,0-0.1,0.1-0.2,0.2L16.8-53.2L16.8-53.2z M16.8-41.5h1.5c0.1,0,0.2,0,0.3,0.1c0.1,0,0.2-0.1,0.3-0.1
		c0.1-0.1,0.1-0.3,0.2-0.4c0.2-0.3,0.3-0.5,0.5-0.8c0.2-0.2,0.4-0.5,0.6-0.7c0.1-0.1,0.3-0.3,0.4-0.4c0.3-0.2,0.6-0.4,0.9-0.6
		c0.3-0.1,0.7-0.3,0.9,0c0.2,0.2,0.1,0.5,0,0.8c0.1,0,0.1-0.1,0.2-0.1c0.2-0.1,0.6-0.2,0.8,0c0.2,0.2,0.1,0.5,0,0.8l0,0
		c0.1,0,0.2,0,0.3,0.1c0.2,0.2,0.1,0.4,0,0.6c-0.1,0.2-0.2,0.3-0.3,0.5c0,0-0.1,0.1-0.1,0.1c0,0,0.1,0,0.1,0c0.3,0,0.6,0.1,0.8,0.1
		c0.3,0.1,0.6,0.2,0.6,0.5c0,0.3-0.3,0.5-0.6,0.5c-0.3,0.1-0.5,0.1-0.8,0.2c0,0-0.1,0-0.1,0c0,0,0.1,0.1,0.1,0.1
		c0.1,0.1,0.2,0.3,0.3,0.5c0.1,0.2,0.2,0.5,0,0.6c-0.1,0.1-0.2,0.1-0.3,0.1l0,0c0.1,0.2,0.3,0.6,0,0.8c-0.2,0.2-0.5,0.1-0.8,0
		c-0.1,0-0.1-0.1-0.2-0.1c0.1,0.2,0.2,0.6,0,0.8c-0.2,0.2-0.6,0.1-0.9,0c-0.3-0.2-0.6-0.4-0.9-0.6c-0.1-0.1-0.3-0.3-0.4-0.4
		c-0.2-0.2-0.4-0.4-0.6-0.7c-0.2-0.2-0.4-0.5-0.5-0.8c-0.1-0.1-0.1-0.2-0.2-0.4c-0.1,0-0.2-0.1-0.3-0.1c-0.1,0-0.2,0.1-0.3,0.1h-1.5
		v-0.3h1.5c0.2,0,0.3-0.1,0.3-0.3c0,0.2,0.2,0.4,0.4,0.4l0.1,0c0,0.3,0.7,1.3,1.3,1.9c0.6,0.6,1.6,1.2,1.8,1
		c0.2-0.2-0.5-1.1-1.1-1.7c-0.4-0.4-1.1-1-1.6-1.2h1.3c-0.1,0.2,0.5,1,1,1.5c0.5,0.5,1.2,0.9,1.3,0.8c0.1-0.1-0.3-0.9-0.8-1.3
		c-0.4-0.4-1-0.8-1.3-1h0.9c0.1,0.2,0.4,0.6,0.6,0.8c0.3,0.3,0.8,0.6,0.9,0.5c0.1-0.1-0.2-0.5-0.5-0.8c-0.2-0.2-0.4-0.4-0.6-0.5h0.2
		c0.1,0,0.3,0,0.4,0c0.6,0,1.5-0.2,1.5-0.4s-0.9-0.4-1.5-0.4c-0.1,0-0.2,0-0.4,0h-0.2c0.2-0.1,0.4-0.3,0.6-0.5
		c0.3-0.3,0.6-0.8,0.5-0.8c-0.1-0.1-0.6,0.2-0.9,0.5c-0.2,0.2-0.5,0.6-0.6,0.8H21c0.3-0.1,0.9-0.6,1.3-1c0.5-0.5,1-1.2,0.8-1.3
		c-0.1-0.1-0.9,0.3-1.3,0.8c-0.5,0.5-1.1,1.3-1,1.5h-1.3c0.4-0.2,1.1-0.8,1.6-1.2c0.6-0.6,1.3-1.5,1.1-1.7c-0.2-0.2-1.2,0.4-1.8,1
		c-0.6,0.6-1.3,1.6-1.3,1.9H19c-0.2,0-0.4,0.2-0.4,0.4c0-0.2-0.1-0.3-0.3-0.3h-1.5L16.8-41.5L16.8-41.5z M16.8-34.3
		c0.3-0.1,0.6-0.1,0.8-0.1c0.3,0,0.6-0.1,0.9-0.1c0.2,0,0.4,0,0.6,0c0.3,0,0.7,0.1,1,0.2c0.3,0.1,0.7,0.3,0.7,0.6
		c0,0.3-0.3,0.5-0.5,0.5c0.1,0,0.1,0,0.2,0.1c0.2,0.1,0.6,0.2,0.6,0.5c0,0.3-0.3,0.5-0.6,0.5l-0.1,0c0.1,0.1,0.1,0.2,0.1,0.3
		c0,0.3-0.2,0.4-0.5,0.5c-0.2,0-0.4,0.1-0.5,0.1c-0.1,0-0.1,0-0.2,0l0.1,0.1c0.2,0.2,0.4,0.4,0.5,0.7c0.1,0.2,0.3,0.6,0,0.8
		c-0.2,0.2-0.5,0.1-0.8,0c-0.2-0.1-0.5-0.3-0.7-0.5l-0.1-0.1c0,0.1,0,0.1,0,0.2c0,0.2,0,0.4-0.1,0.5c-0.1,0.2-0.2,0.5-0.4,0.5
		c-0.1,0-0.2-0.1-0.3-0.1l0,0.1c-0.1,0.3-0.2,0.6-0.5,0.6c-0.1,0-0.1,0-0.2,0V-29c0.1,0.1,0.1,0.2,0.2,0.2c0.2,0,0.4-0.9,0.4-1.5
		c0-0.5-0.1-1.3-0.2-1.6l0.6,0.6c-0.1,0.2-0.2,0.7-0.2,1c0,0.4,0.1,1,0.3,1c0.1,0,0.2-0.5,0.2-1c0-0.2,0-0.5-0.1-0.8l0.2,0.2
		c0.1,0.1,0.2,0.2,0.3,0.3c0.5,0.5,1.2,0.9,1.3,0.8c0.1-0.1-0.3-0.9-0.8-1.3c-0.1-0.1-0.2-0.2-0.3-0.3l-0.2-0.2
		c0.2,0,0.5,0.1,0.8,0.1c0.4,0,1-0.1,1-0.2c0-0.1-0.5-0.3-1-0.3c-0.3,0-0.8,0.1-1,0.2l-0.6-0.6c0.3,0.1,1.1,0.2,1.6,0.2
		c0.6,0,1.5-0.2,1.5-0.4s-0.9-0.4-1.5-0.4c-0.6,0-1.7,0.2-1.7,0.4l-0.7-0.7v-0.2c0.5,0.1,1.2,0.2,1.7,0.2c0.9,0,2-0.2,2-0.5
		s-1.1-0.5-2-0.5c-0.5,0-1.2,0.1-1.7,0.2V-34.3z M16.8-31.7c0.1-0.2,0.1-0.2,0.2-0.3l-0.2-0.2V-31.7z M16.8-49.5l0.2-0.2
		c-0.1,0-0.1-0.1-0.2-0.3V-49.5z M15.7-53c0,0,0.1,0,0.2,0c0.3,0,0.5,0.3,0.5,0.5c0-0.1,0-0.1,0.1-0.2c0.1-0.2,0.2-0.4,0.3-0.5v0.5
		c-0.1,0.3-0.2,0.8-0.2,1.3c0,0.5,0.1,1.1,0.2,1.5v0.4l-0.7,0.8c0.2-0.5,0.3-1.4,0.3-2c0-0.9-0.2-2-0.5-2c-0.1,0-0.1,0-0.2,0.1
		C15.7-52.6,15.7-53,15.7-53z M16.8-47.4L16.8-47.4c-0.2-0.1-0.4-0.1-0.5-0.2c-0.1,0.1-0.2,0.1-0.3,0.1c0,0.1-0.1,0.2-0.2,0.3
		L15.7-47v-0.5c0.1-0.1,0.1-0.3,0-0.4v0c0.1,0.1,0.3,0.1,0.5,0l0.1-0.1c0.1,0.1,0.3,0.2,0.5,0.2C16.8-47.7,16.8-47.4,16.8-47.4z
		 M15.7-41.5h1.1v0.3h-1.1V-41.5z M16.8-40.2h-1.1v-0.3h1.1V-40.2z M15.7-34.7l0.2,0.2c0.1,0.1,0.1,0.2,0.2,0.3
		c0.1,0,0.2,0.1,0.3,0.1c0.1-0.1,0.3-0.1,0.4-0.1l0.1,0v0.3c-0.3,0.1-0.5,0.1-0.5,0.2l-0.1-0.1c-0.1-0.1-0.3-0.1-0.5,0v0
		c0.1-0.1,0.1-0.3,0-0.4L15.7-34.7L15.7-34.7z M16.8-28.5c-0.2-0.1-0.3-0.3-0.3-0.5c0-0.1,0-0.1-0.1-0.2c-0.1,0.3-0.2,0.5-0.5,0.5
		c-0.1,0-0.1,0-0.2,0v-0.4c0,0.1,0.1,0.1,0.2,0.1c0.3,0,0.5-1.1,0.5-2c0-0.6-0.1-1.5-0.3-2l0.7,0.7v0.4c-0.1,0.4-0.2,1-0.2,1.5
		c0,0.4,0.1,1,0.2,1.3C16.8-29,16.8-28.5,16.8-28.5z M16.8-48.5v0.2c-0.1,0-0.2,0-0.2,0.1L16.8-48.5z M16.8-33.3v0.2l-0.2-0.2
		C16.7-33.4,16.7-33.4,16.8-33.3z M15.7-33.1v-0.1V-33.1L15.7-33.1z M15.7-36.9v-0.5c0.2,0,0.4-0.1,0.5-0.4c0.1-0.3,0-0.6-0.3-0.7
		c-0.1,0-0.1,0-0.2,0v-0.5c0.1,0,0.3,0,0.4,0.1c0.5,0.2,0.8,0.8,0.6,1.3C16.5-37.1,16.1-36.9,15.7-36.9z M15.7-42.7v-0.5
		c0.1,0,0.1,0,0.2,0c0.3-0.1,0.4-0.5,0.3-0.7c-0.1-0.2-0.3-0.4-0.5-0.4v-0.5c0.4,0,0.8,0.2,1,0.6c0.2,0.5,0,1.1-0.6,1.3
		C16-42.8,15.9-42.7,15.7-42.7z M15.7-48.4v-0.1V-48.4L15.7-48.4z M14.7-47.7l0.4-0.4c0.1-0.1,0.2-0.1,0.3-0.2
		c0-0.1,0.1-0.2,0.1-0.3c-0.1-0.1-0.1-0.3-0.1-0.4c-0.1-0.3-0.1-0.6-0.2-0.9c0-0.3-0.1-0.6-0.1-0.9c0-0.2,0-0.4,0-0.6
		c0-0.3,0.1-0.7,0.2-1c0.1-0.2,0.2-0.5,0.5-0.6v0.4c-0.2,0.3-0.4,1.2-0.4,1.9c0,0.7,0.2,1.8,0.4,2.2v0.1l0,0c-0.1,0.1-0.1,0.4,0,0.5
		c-0.1-0.1-0.3-0.1-0.4,0l-0.6,0.6C14.7-47.3,14.7-47.7,14.7-47.7z M15.7-47v-0.5l0,0l-1,1v0.5L15.7-47z M14.7-42.9
		c0.2,0.5,0.3,0.9,0.3,1.4h0.8v0.3H15c0,0.1,0,0.2,0,0.3s0,0.2,0,0.3h0.7v0.3H15c0,0.5-0.2,1-0.3,1.4v-1.4H15h-0.3V-42.9z
		 M14.7-35.7l1.1,1.1v0.5l0,0l-1-1V-35.7z M15.7-28.7v-0.4c-0.2-0.3-0.4-1.2-0.4-1.9c0-0.7,0.2-1.8,0.4-2.2v-0.1l0,0
		c-0.1-0.1-0.1-0.4,0-0.5c-0.1,0.1-0.3,0.1-0.4,0l-0.6-0.6v0.5l0.4,0.4c0.1,0.1,0.2,0.1,0.3,0.2c0,0.1,0.1,0.2,0.1,0.3
		c-0.1,0.1-0.1,0.3-0.1,0.4c-0.1,0.3-0.1,0.6-0.2,0.9c0,0.3-0.1,0.6-0.1,0.9c0,0.2,0,0.4,0,0.6c0,0.3,0.1,0.7,0.2,1
		C15.4-29.1,15.5-28.8,15.7-28.7z M15.7-47.8L15.7-47.8L15.7-47.8L15.7-47.8z M15.7-44.8c-0.1,0-0.3,0-0.4,0.1
		c-0.5,0.2-0.8,0.8-0.6,1.3c0.2,0.4,0.5,0.6,0.9,0.6v-0.5c-0.2,0-0.4-0.1-0.5-0.4c-0.1-0.3,0-0.6,0.3-0.7c0.1,0,0.1,0,0.2,0V-44.8z
		 M15.7-38.9c-0.4,0-0.8,0.2-0.9,0.6c-0.2,0.5,0,1.1,0.6,1.3c0.1,0.1,0.3,0.1,0.4,0.1v-0.5c-0.1,0-0.1,0-0.2,0
		c-0.3-0.1-0.4-0.5-0.3-0.7c0.1-0.2,0.3-0.4,0.5-0.4V-38.9z M15.7-33.8L15.7-33.8L15.7-33.8L15.7-33.8z M14.4-47.5l0.3-0.3v0.5
		L14.4-47V-47.5z M14.7-45.9l-0.3,0.3v-0.5l0.3-0.3V-45.9z M14.4-43.6c0.1,0.2,0.2,0.5,0.3,0.7v2.7h-0.3v-0.2l0,0l0,0l0-0.1l0,0
		c0-0.1,0-0.2,0-0.3c0-0.1,0-0.2,0-0.3l0,0l0-0.1l0,0v0V-43.6z M14.7-38.8c-0.1,0.2-0.2,0.5-0.3,0.7v-2.1h0.3V-38.8z M14.4-36
		l0.3,0.3v0.5l-0.3-0.3V-36z M14.7-33.9l-0.3-0.3v-0.5l0.3,0.3V-33.9z M13.7-46.7l0.7-0.7v0.5l-0.7,0.7V-46.7z M14.4-45.6l-0.7,0.7
		v-0.5l0.7-0.7V-45.6z M13.7-44.7c0.3,0.4,0.5,0.7,0.7,1.1v2.3l0,0l0-0.1l0-0.1c-0.1-0.8-0.3-1.5-0.7-2.2V-44.7z M14.4-38.1
		c-0.2,0.4-0.4,0.8-0.7,1.1V-38c0.4-0.7,0.6-1.4,0.7-2.2l0-0.1l0-0.1l0,0v0.2h0l0,0h0V-38.1z M13.7-36.7l0.7,0.7v0.5l-0.7-0.7V-36.7
		z M14.4-34.2l-0.7-0.7v-0.5l0.7,0.7V-34.2z M13.2-46.2l0.5-0.5v0.5l-0.5,0.5V-46.2z M13.7-44.9L13.7-44.9v0.2v1.1
		c-0.1-0.3-0.3-0.5-0.5-0.8v-0.9c0.1,0.1,0.1,0.2,0.2,0.2l0.3-0.3V-44.9z M13.7-36.9L13.7-36.9v0.2v0.5l-0.3-0.3
		c-0.1,0.1-0.1,0.2-0.2,0.2v-0.4l0.2,0.2l-0.2-0.3v-0.4c0.2-0.2,0.4-0.5,0.5-0.8V-36.9z M13.7-34.9l-0.5-0.5v-0.5l0.5,0.5V-34.9z
		 M12-28.2c0,0.1,0.1,0.1,0.1,0.2c0.1,0.3,0.3,0.7,0,0.9c0,0-0.1,0.1-0.2,0.1V-28.2z M12-54.7c0.1,0,0.1,0.1,0.2,0.1
		c0.2,0.2,0.1,0.6,0,0.9c0,0.1-0.1,0.1-0.1,0.2V-54.7z M12-46.2c0.2,0.1,0.5,0.3,0.7,0.5l0.5-0.5v0.5l-0.2,0.2
		c0.1,0.1,0.2,0.1,0.2,0.2v0.9l0,0l-0.1-0.1l0,0L13-44.6l0,0l0,0c-0.1-0.2-0.3-0.3-0.5-0.5l0,0l-0.1-0.1l0,0l-0.1-0.1
		c-0.1-0.1-0.2-0.1-0.3-0.2C12-45.5,12-46.2,12-46.2z M13.2-35.4l-0.5-0.5c-0.2,0.2-0.4,0.3-0.7,0.5v-0.7c0.1-0.1,0.1-0.1,0.2-0.2
		l0,0l0.1-0.1l0,0l0.1-0.1l0,0h0c0.2-0.2,0.3-0.3,0.5-0.5l0.1-0.1l0,0l0.1-0.1l0,0h0l0,0v0.4L13-37.1l0,0l0.2,0.2v0.4
		c-0.1,0.1-0.2,0.1-0.2,0.2l0.2,0.2C13.2-35.9,13.2-35.4,13.2-35.4z M12-32.8v-0.5c0.1-0.2,0.2-0.4,0.1-0.6c0-0.1-0.1-0.1-0.1-0.2
		v-0.5c0.2,0.1,0.4,0.3,0.5,0.5C12.8-33.6,12.5-33.1,12-32.8z M12-38.9v-1.2c0.2,0,0.5,0.1,0.6,0.4c0.1,0.3,0,0.7-0.3,0.8
		C12.2-38.9,12.1-38.9,12-38.9z M12-40.3v-1.1c0.2-0.1,0.5-0.1,0.7,0.1c0.2,0.2,0.2,0.6,0,0.8C12.5-40.3,12.2-40.2,12-40.3z
		 M12-41.6v-1.2c0.1,0,0.1,0,0.2,0c0.3,0.1,0.5,0.5,0.3,0.8C12.5-41.8,12.2-41.7,12-41.6z M12-47v-0.5c0,0,0.1-0.1,0.1-0.2
		c0.1-0.2,0-0.4-0.1-0.6v-0.5c0.5,0.2,0.7,0.8,0.5,1.3C12.4-47.3,12.2-47.1,12-47z M11.6-28.8c0.1,0.2,0.3,0.4,0.4,0.6v1.2
		c-0.1,0-0.3,0-0.4,0v-0.3c0.1,0.1,0.3,0.1,0.3,0c0.1-0.1,0-0.5-0.3-0.9V-28.8z M11.6-26.6c0,0.1,0,0.2,0,0.3V-26.6z M11.6-55.3
		c0,0.1,0,0.2,0,0.3V-55.3z M11.6-54.6c0.1,0,0.3-0.1,0.4,0v1.2c-0.1,0.2-0.2,0.4-0.4,0.6v-0.6c0.3-0.4,0.4-0.8,0.3-0.9
		c-0.1-0.1-0.2,0-0.3,0V-54.6z M11.6-46.4c0.1,0.1,0.3,0.1,0.4,0.2v0.7c-0.1-0.1-0.3-0.2-0.4-0.3V-46.4z M12-35.4
		c-0.1,0.1-0.3,0.2-0.4,0.2v-0.7c0.1-0.1,0.3-0.2,0.4-0.3V-35.4z M12-48.8v0.5c-0.1-0.1-0.1-0.1-0.2-0.1c-0.1,0-0.1,0-0.2,0v-0.5
		C11.7-48.9,11.9-48.9,12-48.8L12-48.8z M12-47.5v0.5c-0.1,0.1-0.3,0.1-0.4,0.1v-0.5C11.8-47.3,11.9-47.4,12-47.5z M12-42.8v1.2
		c-0.1,0-0.2,0-0.3,0c0,0-0.1,0-0.1-0.1v-1C11.7-42.8,11.9-42.9,12-42.8z M12-41.4v1.1c-0.1,0-0.1-0.1-0.2-0.1
		c-0.2-0.2-0.2-0.6,0-0.8C11.9-41.3,12-41.4,12-41.4z M12-40.1v1.2c-0.1,0-0.3,0-0.4-0.1v-0.9c0,0,0.1-0.1,0.2-0.1
		C11.9-40.1,11.9-40.1,12-40.1z M12-34.7v0.5c-0.1-0.1-0.2-0.2-0.4-0.2v-0.5C11.8-34.8,11.9-34.8,12-34.7z M12-33.4v0.5l0,0
		c-0.1,0-0.2,0.1-0.4,0.1v-0.5c0.1,0,0.1,0,0.2,0C11.9-33.3,12-33.3,12-33.4z M11.6-37.8v-0.9c0.1,0.1,0.2,0.3,0.2,0.5
		C11.8-38.1,11.8-38,11.6-37.8z M11.6-43v-0.8c0.1,0.1,0.2,0.3,0.2,0.4S11.7-43.1,11.6-43z M11-29.5c0.1,0.1,0.1,0.1,0.2,0.2
		c0.1,0.1,0.3,0.3,0.4,0.4c0,0,0.1,0.1,0.1,0.1v0.6c-0.2-0.3-0.4-0.6-0.7-0.8C11-29.1,11-29.5,11-29.5z M11.6-27
		c-0.1,0-0.2-0.1-0.2-0.1c0,0.1,0.1,0.1,0.1,0.2c0.1,0.1,0.1,0.2,0.1,0.3v0.3c0,0.1-0.1,0.1-0.1,0.2C11.4-26,11.2-26,11-26.1v-0.4
		c0.2,0.1,0.3,0.1,0.3,0.1c0.1-0.1-0.1-0.5-0.3-0.8v-0.6c0.2,0.2,0.5,0.3,0.7,0.4L11.6-27L11.6-27z M11-55.6
		c0.2-0.1,0.4-0.1,0.6,0.1c0.1,0.1,0.1,0.1,0.1,0.2v0.3c0,0.1-0.1,0.2-0.1,0.3c0,0.1-0.1,0.1-0.1,0.2c0.1,0,0.1-0.1,0.2-0.1v0.3
		c-0.2,0.1-0.4,0.2-0.7,0.4v-0.6c0.3-0.4,0.4-0.7,0.3-0.8c-0.1-0.1-0.2,0-0.3,0.1V-55.6z M11.6-52.9c0,0-0.1,0.1-0.1,0.1
		c-0.1,0.2-0.3,0.3-0.4,0.4c-0.1,0.1-0.1,0.1-0.2,0.2v-0.5c0.2-0.2,0.5-0.6,0.7-0.8C11.6-53.4,11.6-52.9,11.6-52.9z M11-46.8
		c0.2,0.1,0.5,0.2,0.7,0.3v0.7c-0.2-0.1-0.4-0.2-0.7-0.3V-46.8z M11.6-35.2c-0.2,0.1-0.4,0.2-0.7,0.3v-0.7c0.2-0.1,0.5-0.2,0.7-0.3
		V-35.2z M11.6-48.9v0.5c-0.2,0-0.5,0.1-0.6,0.4c-0.1,0.3,0,0.6,0.3,0.7c0.1,0,0.2,0,0.3,0v0.5c-0.1,0-0.3,0-0.4-0.1
		C11.1-47,11-47,11-47.1v-1.6C11.1-48.9,11.4-48.9,11.6-48.9z M11.6-43.8v0.8c-0.1,0.1-0.3,0.2-0.4,0.2c-0.1,0-0.2,0-0.2,0V-44
		c0.1,0,0.2,0,0.2,0C11.4-44,11.5-43.9,11.6-43.8z M11.6-42.7v1c-0.2-0.2-0.3-0.5-0.2-0.7C11.5-42.6,11.5-42.7,11.6-42.7z
		 M11.6-39.9v0.9c-0.1-0.1-0.1-0.1-0.2-0.2C11.4-39.5,11.4-39.8,11.6-39.9z M11.6-38.8v0.9c-0.1,0.1-0.2,0.1-0.4,0.1
		c-0.1,0-0.2,0-0.3-0.1v-1.1c0.1,0,0.2-0.1,0.3-0.1C11.4-38.9,11.5-38.9,11.6-38.8z M11.6-34.8v0.5c-0.1,0-0.2,0-0.3,0
		c-0.3,0.1-0.4,0.5-0.3,0.7c0.1,0.2,0.3,0.4,0.6,0.4v0.5c-0.2,0-0.5-0.1-0.7-0.2v-1.6c0.1-0.1,0.2-0.1,0.2-0.1
		C11.3-34.8,11.5-34.8,11.6-34.8z M11-39.5c0.2,0,0.4-0.2,0.4-0.4c0-0.2-0.2-0.4-0.4-0.4V-39.5z M11-40.5v-0.7l0,0
		c0.2-0.1,0.4,0,0.5,0.2c0.1,0.2,0,0.4-0.2,0.5C11.2-40.4,11.1-40.4,11-40.5z M11-41.4c0.1,0,0.2,0,0.3-0.1c0.2-0.2,0.2-0.4,0-0.6
		c-0.1-0.1-0.2-0.1-0.3-0.1V-41.4z M10.7-29.8c0.1,0.1,0.2,0.2,0.3,0.2v0.5l0,0c-0.1-0.1-0.1-0.1-0.2-0.2
		C10.7-29.3,10.7-29.8,10.7-29.8z M11-26.1c-0.1,0-0.1-0.1-0.2-0.1l0,0c0,0,0,0.1,0,0.1v-0.5c0.1,0.1,0.2,0.1,0.3,0.2
		C11-26.4,11-26.1,11-26.1z M10.7-55.6c0,0,0,0.1,0,0.1l0,0c0.1,0,0.1-0.1,0.2-0.1v0.4c-0.1,0-0.2,0.1-0.3,0.2
		C10.7-55.1,10.7-55.6,10.7-55.6z M11-52.1c-0.1,0.1-0.2,0.2-0.3,0.2v-0.4c0.1-0.1,0.2-0.1,0.2-0.2l0,0C11-52.6,11-52.1,11-52.1z
		 M10.7-46.8c0.1,0,0.2,0.1,0.3,0.1v0.7c-0.1,0-0.2-0.1-0.3-0.1V-46.8z M11-34.9c-0.1,0-0.2,0.1-0.3,0.1v-0.7c0.1,0,0.2-0.1,0.3-0.1
		V-34.9z M11-54.5v0.6c-0.1,0.1-0.2,0.1-0.3,0.2v-0.4C10.8-54.2,10.9-54.4,11-54.5z M11-48.7v1.6c-0.1-0.1-0.2-0.2-0.3-0.3v-1
		C10.8-48.5,10.9-48.6,11-48.7z M11-44v1.1c-0.1,0-0.2-0.1-0.3-0.2v-0.7C10.8-43.8,10.8-43.9,11-44z M11-42.2v0.8
		c-0.1,0-0.2,0-0.3-0.1v-0.6C10.8-42.2,10.9-42.2,11-42.2z M11-41.2v0.7c-0.1,0-0.2-0.1-0.2-0.2C10.7-40.9,10.8-41.1,11-41.2z
		 M11-40.3v0.8c-0.1,0-0.2,0-0.3-0.1v-0.6C10.8-40.3,10.9-40.3,11-40.3z M11-38.8v1.1c-0.1-0.1-0.2-0.2-0.3-0.3v-0.5
		C10.7-38.7,10.8-38.8,11-38.8z M11-34.6v1.6c-0.1-0.1-0.2-0.2-0.3-0.3v-1C10.8-34.4,10.8-34.5,11-34.6z M11-27.8v0.6
		c-0.1-0.1-0.2-0.2-0.3-0.3V-28C10.8-27.9,10.9-27.8,11-27.8z M10.7-38.8c0,0,0.1-0.1,0.1-0.2c0.1-0.2,0-0.4-0.1-0.5V-38.8z
		 M10.7-42.3c0,0,0.1-0.1,0.1-0.1c0.1-0.2,0-0.3-0.1-0.4V-42.3z M10.7-29.8L10.7-29.8l0,0.5l0,0V-29.8z M10.7-26.1L10.7-26.1l0-0.5
		l0,0V-26.1z M10.7-55.7L10.7-55.7l0,0.6l0,0V-55.7z M10.7-51.9L10.7-51.9l0-0.4l0,0V-51.9z M10.7-46.9L10.7-46.9l0,0.7l0,0V-46.9z
		 M10.7-34.8L10.7-34.8l0-0.6l0,0V-34.8z M10.7-54.1v0.5l0,0L10.7-54.1L10.7-54.1z M10.7-48.4v1l0-0.1L10.7-48.4L10.7-48.4z
		 M10.7-43.7v0.7l0,0L10.7-43.7L10.7-43.7z M10.7-42.9v0.6l0,0L10.7-42.9L10.7-42.9z M10.7-42.1v0.6l0,0L10.7-42.1L10.7-42.1z
		 M10.7-40.2v0.6l0,0L10.7-40.2L10.7-40.2z M10.7-39.4v0.6l0,0L10.7-39.4L10.7-39.4z M10.7-38.5v0.5l0-0.1L10.7-38.5L10.7-38.5z
		 M10.7-34.3v1l0-0.1L10.7-34.3L10.7-34.3z M10.7-28v0.5l0,0L10.7-28L10.7-28z M10.7-37.4v-0.3C10.7-37.6,10.7-37.5,10.7-37.4z
		 M10.6-29.8L10.6-29.8l0.1,0.5l-0.1-0.1V-29.8z M10.7-26L10.7-26l-0.1-0.7l0.1,0V-26z M10.6-55.8L10.6-55.8l0.1,0.7l-0.1,0V-55.8z
		 M10.7-51.9L10.7-51.9l-0.1-0.4l0.1-0.1V-51.9z M10.6-46.9L10.6-46.9l0.1,0.7l-0.1,0V-46.9z M10.7-34.8L10.7-34.8l-0.1-0.6l0.1,0
		V-34.8z M10.7-54.1v0.4l-0.1,0L10.7-54.1L10.7-54.1z M10.7-48.3v0.9c0-0.1,0-0.1-0.1-0.2v-0.6C10.6-48.2,10.6-48.3,10.7-48.3
		L10.7-48.3z M10.7-43.7v0.6c0-0.1,0-0.1-0.1-0.2v-0.2C10.6-43.6,10.6-43.6,10.7-43.7z M10.7-42.9v0.6l-0.1,0L10.7-42.9L10.7-42.9z
		 M10.7-42.1v0.6l0,0l-0.1-0.1L10.7-42.1L10.7-42.1L10.7-42.1z M10.7-40.2v0.6l-0.1-0.1L10.7-40.2L10.7-40.2z M10.7-39.4v0.7l-0.1,0
		L10.7-39.4L10.7-39.4z M10.7-38.5v0.3c0,0,0-0.1,0-0.1C10.6-38.4,10.7-38.4,10.7-38.5z M10.7-37.7v0.3l0,0.1l0,0.1v-0.6
		C10.6-37.8,10.6-37.7,10.7-37.7z M10.7-34.2v0.9l0,0c0,0,0-0.1,0-0.1V-34C10.6-34.1,10.6-34.2,10.7-34.2z M10.7-28v0.4l-0.1-0.1
		L10.7-28L10.7-28z M10.6-44.1v-0.2C10.6-44.2,10.6-44.1,10.6-44.1z M10.4-30L10.4-30c0.1,0.1,0.1,0.1,0.2,0.1v0.4
		c-0.1,0-0.1-0.1-0.2-0.2V-30z M10.6-25.9L10.6-25.9c-0.1,0.1-0.1,0.1-0.2,0.1v-1c0.1,0,0.1,0.1,0.2,0.1V-25.9z M10.4-55.9
		c0.1,0,0.1,0,0.2,0.1l0,0v0.8c-0.1,0-0.1,0.1-0.2,0.1V-55.9z M10.6-51.8c0,0-0.1,0.1-0.1,0.1l-0.1,0v-0.4c0.1-0.1,0.1-0.1,0.2-0.2
		V-51.8z M10.4-46.9c0.1,0,0.1,0,0.2,0.1v0.7c-0.1,0-0.1,0-0.2-0.1V-46.9z M10.6-34.8c-0.1,0-0.1,0-0.2,0.1v-0.6
		c0.1,0,0.1,0,0.2-0.1V-34.8z M10.6-54v0.4c-0.1,0.1-0.1,0.1-0.2,0.2v-0.4L10.6-54L10.6-54z M10.6-48.2v0.6
		C10.6-47.8,10.6-48,10.6-48.2z M10.6-44.3v0.2c0,0.1-0.1,0.2-0.2,0.3v-0.9c0.1,0.1,0.1,0.1,0.1,0.2C10.6-44.4,10.6-44.3,10.6-44.3z
		 M10.6-43.5v0.2c0,0,0-0.1,0-0.1S10.6-43.5,10.6-43.5z M10.6-43v0.7c-0.1,0-0.1,0.1-0.2,0.1V-43C10.5-43,10.5-43,10.6-43L10.6-43z
		 M10.6-42v0.5C10.5-41.7,10.5-41.9,10.6-42z M10.6-40.1v0.4c0-0.1-0.1-0.1-0.1-0.2C10.5-40,10.6-40,10.6-40.1z M10.6-39.5v0.7
		c-0.1,0-0.1,0-0.2,0v-0.8C10.5-39.5,10.5-39.5,10.6-39.5L10.6-39.5z M10.6-37.8v0.6c0,0.1-0.1,0.1-0.2,0.2v-1
		C10.5-38,10.6-37.9,10.6-37.8z M10.6-34v0.6C10.6-33.7,10.6-33.9,10.6-34z M10.6-28.1v0.4l-0.1-0.1l-0.1-0.1v-0.4
		C10.5-28.2,10.5-28.1,10.6-28.1z M10-30.3c0.1,0.1,0.3,0.2,0.4,0.3v0.4c-0.1-0.1-0.3-0.2-0.4-0.3V-30.3z M10.4-25.8
		c-0.1,0-0.3,0-0.4-0.1v-0.4c0.2,0.1,0.3,0.1,0.3,0.1c0.1-0.1-0.1-0.4-0.3-0.7v-0.3c0.1,0.1,0.3,0.2,0.4,0.4V-25.8z M10-55.8
		c0.1-0.1,0.3-0.1,0.4-0.1v1c-0.1,0.1-0.3,0.2-0.4,0.3v-0.3c0.2-0.3,0.4-0.6,0.3-0.7c0,0-0.2,0-0.3,0.1V-55.8z M10.4-51.7
		c-0.1,0.1-0.3,0.2-0.4,0.3v-0.4c0.1-0.1,0.3-0.2,0.4-0.3V-51.7z M10-47c0.1,0,0.3,0.1,0.4,0.1v0.6c-0.1,0-0.3-0.1-0.4-0.1V-47z
		 M10.4-34.7c-0.1,0-0.3,0.1-0.4,0.1v-0.6c0.1,0,0.3-0.1,0.4-0.1V-34.7z M10.4-53.9v0.4c-0.1,0.1-0.1,0.1-0.2,0.2
		c-0.1,0.1-0.1,0.1-0.2,0.2v-0.5C10.2-53.6,10.3-53.7,10.4-53.9z M10.4-44.6v0.9c-0.1,0-0.1,0.1-0.2,0.1c-0.1,0-0.1,0-0.2,0v-1.2
		C10.2-44.8,10.3-44.7,10.4-44.6z M10.4-43v0.8c-0.1,0-0.1,0-0.2,0c-0.1,0-0.2-0.1-0.2-0.2v-0.3C10.1-42.9,10.3-43,10.4-43z
		 M10.4-39.5v0.8c-0.1,0-0.1,0-0.2,0c-0.1-0.1-0.2-0.2-0.2-0.3v-0.2l0-0.1C10.1-39.4,10.3-39.5,10.4-39.5z M10.4-38v1
		c-0.1,0.1-0.3,0.1-0.4,0.1v-1.2c0.1,0,0.2,0,0.3,0C10.4-38,10.4-38,10.4-38z M10.4-28.2v0.4c-0.1-0.1-0.3-0.2-0.4-0.3v-0.5
		c0.1,0.1,0.1,0.1,0.2,0.2C10.3-28.3,10.4-28.3,10.4-28.2z M10-38.5v-0.2C10-38.6,10-38.5,10-38.5z M10-30.3L10-30.3l0,0.4l0,0
		V-30.3z M10-25.9L10-25.9l0-0.4l0,0V-25.9z M10-55.8L10-55.8l0,0.4l0,0V-55.8z M10-51.4L10-51.4l0-0.4l0,0V-51.4z M10-47L10-47
		l0,0.6l0,0V-47z M10-34.6L10-34.6l0-0.6l0,0V-34.6z M10-54.9v0.3l0,0L10-54.9L10-54.9z M10-53.5v0.5l0,0L10-53.5L10-53.5z M10-44.8
		v1.2h0L10-44.8L10-44.8z M10-42.8v0.3c0,0,0-0.1,0-0.1v-0.1L10-42.8L10-42.8z M10-39.2v0.2C10-39.1,10-39.1,10-39.2z M10-38.6v0.2
		l0,0.1L10-38.6L10-38.6z M10-38.1v1.2l0,0L10-38.1L10-38.1z M10-28.6v0.5l0,0L10-28.6L10-28.6z M10-27.1v0.3l0,0L10-27.1L10-27.1z
		 M10-43.1v-0.1V-43.1L10-43.1z M9.6-30.5L9.6-30.5c0.2,0.1,0.3,0.2,0.4,0.2v0.4c-0.1-0.1-0.3-0.2-0.4-0.3V-30.5z M10-25.9L10-25.9
		C9.8-26,9.7-26,9.6-26.1v-0.4c0.1,0.1,0.2,0.2,0.4,0.3V-25.9z M9.6-55.5c0.1-0.1,0.2-0.2,0.3-0.2l0,0v0.4c-0.1,0.1-0.2,0.2-0.4,0.3
		V-55.5z M10-51.4c-0.1,0.1-0.2,0.1-0.3,0.2l-0.1,0.1v-0.4c0.1-0.1,0.2-0.2,0.4-0.2V-51.4z M9.6-47.1c0.1,0,0.2,0,0.4,0.1v0.6
		c-0.1,0-0.2-0.1-0.4-0.1V-47.1z M10-34.6c-0.1,0-0.2,0-0.4,0.1v-0.6c0.1,0,0.2,0,0.4-0.1V-34.6z M10-54.8v0.3l0,0
		c-0.1,0.1-0.2,0.2-0.4,0.4v-0.4c0.1-0.1,0.2-0.1,0.2-0.2C9.9-54.7,9.9-54.8,10-54.8z M10-53.5v0.5c-0.1,0.1-0.2,0.3-0.4,0.4v-0.6
		C9.7-53.3,9.9-53.4,10-53.5z M10-44.8v1.2c-0.1,0-0.3-0.1-0.4-0.1v-0.9c0,0,0.1-0.1,0.2-0.1C9.9-44.8,9.9-44.8,10-44.8z M10-43.2
		v0.1c0,0.2-0.2,0.3-0.4,0.3v-0.8C9.8-43.5,10-43.4,10-43.2z M10-42.7v0.1C10-42.6,10-42.6,10-42.7z M10-38.7v0.4c0,0,0,0.1-0.1,0.1
		c-0.1,0.1-0.2,0.1-0.3,0.1V-39c0.1,0,0.2,0,0.3,0.1C9.9-38.8,10-38.8,10-38.7z M10-38.1v1.2c0,0-0.1,0-0.1,0
		c-0.1,0-0.2-0.1-0.2-0.2v-0.8C9.7-38,9.9-38.1,10-38.1z M10-28.6v0.5c-0.1-0.1-0.2-0.2-0.4-0.3v-0.6C9.7-28.9,9.9-28.8,10-28.6z
		 M10-27.2v0.3c0-0.1-0.1-0.1-0.1-0.2c-0.1-0.1-0.1-0.1-0.2-0.2v-0.4C9.7-27.4,9.9-27.3,10-27.2L10-27.2z M9.3-30.7
		c0.1,0,0.2,0.1,0.3,0.1v0.4c-0.3-0.2-0.5-0.3-0.6-0.3v-0.1c0-0.2-0.2-0.4-0.3-0.4v0C8.8-30.9,9-31,9-31.2v-3.3c-0.1,0-0.2,0-0.3,0
		v-0.6c0.1,0,0.3,0,0.4,0l0.1,0l0.1,0l0.1,0c0.1,0,0.2,0,0.3,0v0.6c-0.1,0-0.2,0-0.3,0v3.3c0,0.1,0,0.2-0.1,0.3
		C9.3-30.8,9.3-30.7,9.3-30.7z M9.6-26.1c0,0-0.1-0.1-0.1-0.1c0,0-0.1-0.1-0.1-0.1c0,0,0,0.1,0,0.1c0,0.3-0.1,0.6-0.1,0.8
		c-0.1,0.3-0.2,0.6-0.5,0.6h0v-0.3l0,0C8.9-25.2,9-26,9-26.7c0-0.1,0-0.2,0-0.4v-0.2c0.1,0.2,0.3,0.4,0.5,0.6c0,0,0.1,0.1,0.1,0.1
		L9.6-26.1L9.6-26.1z M8.7-56.8L8.7-56.8c0.3,0,0.5,0.3,0.5,0.6c0.1,0.3,0.1,0.5,0.1,0.8c0,0,0,0.1,0,0.1c0,0,0.1-0.1,0.1-0.1
		c0,0,0.1-0.1,0.1-0.1v0.4c0,0-0.1,0.1-0.1,0.1c-0.2,0.2-0.4,0.4-0.5,0.6v-0.2c0-0.1,0-0.3,0-0.4c0-0.7-0.1-1.5-0.4-1.5h0L8.7-56.8
		L8.7-56.8z M9.6-51.2c-0.1,0-0.2,0.1-0.3,0.1c0,0.1-0.1,0.2-0.1,0.3c0,0.1,0.1,0.2,0.1,0.3v3.3c0.1,0,0.2,0,0.3,0v0.6
		c-0.1,0-0.2,0-0.3,0l-0.1,0l0,0l-0.1,0c-0.1,0-0.3,0-0.4,0v-0.6c0.1,0,0.2,0,0.3,0v-3.3c0-0.2-0.1-0.3-0.3-0.3l0,0
		c0.2,0,0.3-0.2,0.3-0.4v-0.1c0.1,0,0.3-0.1,0.6-0.3L9.6-51.2L9.6-51.2z M9.6-54.5c-0.2,0.2-0.4,0.3-0.6,0.4v0.9
		c0.1-0.2,0.3-0.6,0.6-0.9V-54.5z M9.6-53.2v0.6c-0.3,0.3-0.5,0.7-0.6,0.9V-53C9.1-52.9,9.3-53,9.6-53.2z M9.6-44.6v0.9
		c-0.1-0.1-0.1-0.1-0.2-0.2C9.4-44.2,9.4-44.5,9.6-44.6z M9.6-43.5v0.8l0,0c-0.2,0-0.4-0.2-0.4-0.4S9.4-43.5,9.6-43.5L9.6-43.5z
		 M9.6-39v0.8c-0.1,0-0.2,0-0.3-0.1c-0.2-0.2-0.2-0.4,0-0.6C9.4-38.9,9.5-39,9.6-39z M9.6-37.9v0.8c-0.1-0.2-0.2-0.4-0.1-0.6
		C9.6-37.8,9.6-37.9,9.6-37.9z M9.6-29.1v0.6c-0.3-0.2-0.5-0.3-0.6-0.2V-30C9.1-29.7,9.4-29.4,9.6-29.1z M9.6-27.6
		c-0.3-0.3-0.5-0.7-0.6-0.9v0.9c0.1,0.1,0.4,0.2,0.6,0.4V-27.6z M8.7-36.6v-1.2c0.2,0,0.3,0.1,0.4,0.2c0.2,0.2,0.2,0.6,0,0.9
		C9-36.7,8.8-36.6,8.7-36.6z M8.7-37.9v-0.8c0.2,0,0.3,0.1,0.4,0.3c0.1,0.2,0,0.4-0.2,0.5C8.8-38,8.7-37.9,8.7-37.9z M8.7-42.9v-0.8
		c0.1,0,0.3,0.1,0.3,0.2c0.1,0.2,0,0.4-0.2,0.5C8.8-42.9,8.7-42.9,8.7-42.9z M8.7-43.8V-45C8.8-45,9-45,9.1-44.9
		c0.2,0.2,0.2,0.6,0,0.8C9-43.9,8.8-43.9,8.7-43.8z M8.7-24.8c-0.3,0-0.5-0.3-0.5-0.6C8.1-25.7,8-25.9,8-26.2c0,0,0-0.1,0-0.1
		c0,0-0.1,0.1-0.1,0.1l-0.1,0.1v-0.4l0.1-0.1C8-26.8,8.2-27,8.3-27.2v0.2c0,0.1,0,0.3,0,0.4c0,0.6,0.2,1.5,0.4,1.5V-24.8z M7.7-30.5
		c0.1,0,0.2-0.1,0.3-0.1c0-0.1,0.1-0.2,0.1-0.3C8-31,8-31.1,8-31.2v-3.3c-0.1,0-0.2,0-0.3,0v-0.6c0.1,0,0.2,0,0.3,0l0.1,0l0.1,0
		l0.1,0l0.1,0l0,0c0.1,0,0.2,0,0.3,0h0v0.6h0c-0.1,0-0.2,0-0.3,0v3.3c0,0.2,0.1,0.3,0.3,0.3c-0.2,0-0.4,0.2-0.4,0.4v0.1
		c-0.1,0-0.3,0.1-0.6,0.2L7.7-30.5L7.7-30.5z M7.7-47.1c0.1,0,0.2,0,0.3,0v-3.3c0-0.1,0-0.2,0.1-0.3C8-50.8,8-50.9,8-51
		c-0.1,0-0.2-0.1-0.3-0.1v-0.4c0.2,0.2,0.5,0.2,0.6,0.2v0.1c0,0.2,0.2,0.4,0.4,0.4c-0.2,0-0.3,0.1-0.3,0.3v3.3c0.1,0,0.2,0,0.3,0h0
		v0.6h0c-0.1,0-0.2,0-0.3,0l0,0l-0.1,0l-0.1,0l-0.1,0l-0.1,0c-0.1,0-0.2,0-0.3,0L7.7-47.1L7.7-47.1z M7.7-55.5l0.1,0.1
		c0,0,0.1,0.1,0.1,0.1c0,0,0-0.1,0-0.1c0-0.3,0.1-0.6,0.2-0.8c0.1-0.2,0.2-0.6,0.5-0.6v0.3c-0.2,0-0.4,0.9-0.4,1.5
		c0,0.1,0,0.2,0,0.4v0.2C8.2-54.6,8-54.9,7.8-55l-0.1-0.1V-55.5z M8.7-50.8L8.7-50.8L8.7-50.8L8.7-50.8z M8.7-45v1.2
		c-0.2,0-0.3,0-0.5-0.2c-0.2-0.2-0.2-0.6,0-0.8C8.3-45,8.5-45.1,8.7-45z M8.7-43.7v0.8c-0.2,0-0.3-0.1-0.4-0.2
		c-0.1-0.2,0-0.4,0.2-0.5C8.6-43.7,8.6-43.7,8.7-43.7z M8.7-38.8v0.8c-0.2,0-0.3-0.1-0.4-0.3c-0.1-0.2,0-0.4,0.2-0.5
		C8.6-38.8,8.6-38.8,8.7-38.8z M8.7-37.8v1.2c-0.1,0-0.3-0.1-0.4-0.2C8-37,8-37.4,8.3-37.6C8.4-37.8,8.5-37.8,8.7-37.8z M8.7-30.9
		L8.7-30.9L8.7-30.9L8.7-30.9z M7.7-27.2c0.2-0.2,0.4-0.3,0.6-0.4v-0.9c-0.1,0.2-0.3,0.6-0.6,0.9V-27.2z M7.7-28.5v-0.7
		C8-29.4,8.2-29.7,8.3-30v1.3C8.2-28.7,8-28.6,7.7-28.5z M7.7-37v-0.9c0.1,0.1,0.1,0.1,0.1,0.2C8-37.5,7.9-37.2,7.7-37z M7.7-38.1
		v-0.8c0.2,0,0.4,0.2,0.4,0.4C8.1-38.3,8-38.1,7.7-38.1z M7.7-42.7v-0.8c0.1,0,0.2,0,0.3,0.1c0.2,0.2,0.2,0.4,0,0.6
		C7.9-42.8,7.8-42.7,7.7-42.7z M7.7-43.8v-0.7c0.1,0.2,0.2,0.4,0.1,0.6C7.8-43.9,7.8-43.8,7.7-43.8z M7.7-52.6v-0.7
		C8-53,8.2-52.9,8.3-53v1.3C8.2-51.9,8-52.2,7.7-52.6z M7.7-54c0.3,0.3,0.5,0.7,0.6,0.9v-0.9c-0.1-0.1-0.4-0.2-0.6-0.4V-54z
		 M7.7-26.1c-0.1,0.1-0.2,0.2-0.3,0.2l-0.1,0v-0.4c0.1-0.1,0.3-0.2,0.4-0.3L7.7-26.1L7.7-26.1z M7.3-30.3c0.1-0.1,0.2-0.1,0.3-0.2
		c0,0,0.1,0,0.1-0.1v0.4c-0.1,0.1-0.3,0.2-0.4,0.3V-30.3z M7.7-34.6c-0.1,0-0.3,0-0.4-0.1v-0.6c0.1,0,0.3,0.1,0.4,0.1V-34.6z
		 M7.3-47c0.1,0,0.3-0.1,0.4-0.1v0.6c-0.1,0-0.3,0-0.4,0.1V-47z M7.7-51.1c0,0-0.1,0-0.1-0.1c-0.1-0.1-0.2-0.1-0.3-0.2v-0.4
		c0.1,0.1,0.3,0.2,0.4,0.3V-51.1z M7.3-55.8L7.3-55.8c0.2,0.1,0.3,0.2,0.4,0.3v0.4c-0.1-0.1-0.3-0.2-0.4-0.3L7.3-55.8L7.3-55.8z
		 M7.7-54.4v0.4c-0.1-0.2-0.3-0.3-0.4-0.4l0,0v-0.3c0.1,0.1,0.1,0.1,0.1,0.2C7.6-54.6,7.6-54.5,7.7-54.4z M7.7-53.2v0.7
		c-0.1-0.2-0.3-0.3-0.4-0.5v-0.5C7.5-53.4,7.6-53.3,7.7-53.2z M7.7-44.5v0.7c-0.1,0.1-0.2,0.2-0.4,0.2v-1.2c0.1,0,0.1,0,0.2,0
		C7.6-44.7,7.7-44.6,7.7-44.5z M7.7-43.5v0.8c-0.1,0-0.2,0-0.3-0.1c0,0-0.1-0.1-0.1-0.1v-0.4c0,0,0-0.1,0.1-0.1
		C7.5-43.5,7.6-43.5,7.7-43.5z M7.7-38.9v0.8c-0.2,0-0.4-0.1-0.4-0.3v-0.1C7.4-38.8,7.5-38.9,7.7-38.9z M7.7-37.9v0.9
		c-0.1,0-0.1,0.1-0.2,0.1c-0.1,0-0.1,0-0.2,0v-1.2C7.5-38.1,7.6-38,7.7-37.9z M7.7-29.1v0.7c-0.1,0.1-0.3,0.2-0.4,0.3v-0.5
		C7.5-28.8,7.6-28.9,7.7-29.1z M7.7-27.6v0.4c-0.1,0.1-0.2,0.2-0.3,0.2c-0.1,0.1-0.1,0.1-0.1,0.2v-0.3l0,0
		C7.5-27.3,7.6-27.5,7.7-27.6z M7.3-39v-0.1C7.3-39.1,7.3-39,7.3-39z M7.3-25.9L7.3-25.9l0-0.4l0,0V-25.9z M7.3-30.3L7.3-30.3l0,0.4
		l0,0V-30.3z M7.3-34.6L7.3-34.6l0-0.6l0,0V-34.6z M7.3-47L7.3-47l0,0.6l0,0V-47z M7.3-51.4L7.3-51.4l0-0.4l0,0V-51.4z M7.3-55.8
		L7.3-55.8l0,0.4l0,0V-55.8z M7.3-54.8v0.3l0,0L7.3-54.8L7.3-54.8z M7.3-53.5v0.5l0,0L7.3-53.5L7.3-53.5z M7.3-44.8v1.2l0,0
		L7.3-44.8L7.3-44.8z M7.3-43.3v0.4l0-0.1L7.3-43.3L7.3-43.3z M7.3-39.1v0.1l0,0.1l0,0v-0.3C7.3-39.2,7.3-39.2,7.3-39.1z M7.3-38.6
		v0.1V-38.6L7.3-38.6z M7.3-38.1v1.2h0L7.3-38.1L7.3-38.1z M7.3-28.6v0.5l0,0L7.3-28.6L7.3-28.6z M7.3-27.2v0.3l0,0L7.3-27.2
		L7.3-27.2z M7.3-42.5v-0.2C7.3-42.6,7.3-42.5,7.3-42.5z M7.3-25.9c-0.1,0.1-0.3,0.1-0.4,0.1v-1c0.1-0.1,0.3-0.2,0.4-0.3v0.4
		c-0.2,0.3-0.4,0.6-0.3,0.7c0,0,0.2,0,0.3-0.1V-25.9z M6.9-30c0.1-0.1,0.2-0.2,0.4-0.3v0.4c-0.1,0.1-0.3,0.2-0.4,0.3V-30z M7.3-34.6
		c-0.1,0-0.2-0.1-0.4-0.1v-0.6c0.1,0,0.2,0.1,0.4,0.1V-34.6z M6.9-46.9C7-47,7.2-47,7.3-47v0.6c-0.1,0-0.2,0.1-0.4,0.1V-46.9z
		 M7.3-51.4c-0.1-0.1-0.3-0.2-0.4-0.3v-0.4C7-52,7.2-51.9,7.3-51.8V-51.4z M6.9-55.9c0.1,0,0.3,0,0.4,0.1v0.4
		C7.1-55.5,7-55.6,7-55.5c-0.1,0.1,0.1,0.4,0.3,0.7v0.4c-0.1-0.1-0.2-0.2-0.4-0.3V-55.9z M7.3-53.5v0.5c-0.1-0.1-0.1-0.1-0.2-0.2
		c-0.1-0.1-0.1-0.1-0.2-0.2v-0.4C7-53.7,7.2-53.6,7.3-53.5z M7.3-44.8v1.2c-0.1,0-0.2,0-0.3,0l-0.1-0.1v-1C7-44.7,7.2-44.8,7.3-44.8
		z M7.3-43.2v0.2C7.3-43.1,7.3-43.1,7.3-43.2z M7.3-42.7v0.2l0,0.1c-0.1,0.1-0.2,0.2-0.4,0.3V-43c0,0,0.1,0,0.1,0
		C7.2-42.9,7.3-42.8,7.3-42.7z M7.3-39.2v0.3c-0.1,0.2-0.2,0.2-0.4,0.2v-0.8c0.1,0,0.1,0,0.2,0C7.2-39.4,7.3-39.3,7.3-39.2z
		 M7.3-38.1v1.2c-0.1,0-0.3-0.1-0.4-0.1v-0.9C7-38,7-38,7.1-38C7.2-38.1,7.2-38.1,7.3-38.1z M7.3-28.6v0.5C7.2-28,7-27.9,6.9-27.8
		v-0.4c0.1-0.1,0.1-0.1,0.2-0.2C7.2-28.5,7.2-28.5,7.3-28.6z M6.9-25.8c-0.1,0-0.1,0-0.2-0.1l0,0v-0.7c0.1,0,0.1-0.1,0.2-0.1
		L6.9-25.8L6.9-25.8z M6.7-29.8c0,0,0.1-0.1,0.1-0.1L6.9-30v0.4c-0.1,0.1-0.1,0.1-0.2,0.2V-29.8z M6.9-34.7c-0.1,0-0.1,0-0.2-0.1
		v-0.7c0.1,0,0.1,0,0.2,0.1V-34.7z M6.7-46.9c0.1,0,0.1,0,0.2-0.1v0.6c-0.1,0-0.1,0-0.2,0.1V-46.9z M6.9-51.7L6.9-51.7
		c-0.1-0.1-0.2-0.1-0.2-0.2v-0.4c0.1,0.1,0.1,0.1,0.2,0.2V-51.7z M6.7-55.7L6.7-55.7c0.1-0.1,0.1-0.1,0.2-0.1v1
		C6.9-54.9,6.8-55,6.7-55L6.7-55.7L6.7-55.7z M6.9-53.8v0.4c-0.1-0.1-0.1-0.1-0.2-0.2V-54l0.1,0.1L6.9-53.8z M6.9-44.7v1
		c-0.1-0.1-0.1-0.1-0.2-0.2v-0.6C6.8-44.5,6.8-44.6,6.9-44.7z M6.9-43v0.8c-0.1,0-0.1,0-0.2,0l0,0v-0.7C6.8-43,6.9-43,6.9-43z
		 M6.9-39.5v0.8c-0.1,0-0.1,0-0.2,0l0,0v-0.7C6.8-39.5,6.9-39.5,6.9-39.5z M6.9-37.9v0.9c-0.1-0.1-0.1-0.1-0.2-0.2c0,0,0-0.1,0-0.1
		v-0.2C6.8-37.7,6.8-37.8,6.9-37.9z M6.9-28.2v0.4l-0.1,0.1l-0.1,0.1v-0.4C6.8-28.1,6.9-28.2,6.9-28.2z M6.7-33.5V-34
		C6.8-33.9,6.8-33.7,6.7-33.5z M6.7-38.1v-0.2c0,0,0,0.1,0,0.1C6.7-38.2,6.7-38.2,6.7-38.1z M6.7-39.7v-0.4
		C6.8-40,6.8-39.8,6.7-39.7z M6.7-41.6V-42c0,0.1,0,0.1,0,0.2C6.8-41.7,6.8-41.6,6.7-41.6z M6.7-47.6v-0.6C6.8-48,6.8-47.8,6.7-47.6
		z M6.7-25.9c0,0-0.1-0.1-0.1-0.1v-0.6l0.1-0.1V-25.9z M6.7-29.8L6.7-29.8l0.1,0.4l-0.1,0.1V-29.8z M6.7-34.8L6.7-34.8l-0.1-0.7
		l0.1,0V-34.8z M6.7-46.9L6.7-46.9l0.1,0.6l-0.1,0V-46.9z M6.7-51.8L6.7-51.8l-0.1-0.5l0.1,0.1V-51.8z M6.7-55.6c0,0,0-0.1,0.1-0.1
		v0.7l-0.1-0.1V-55.6z M6.7-54v0.4l-0.1-0.1L6.7-54L6.7-54z M6.7-48.2v0.6c0,0.1,0,0.1-0.1,0.2v-0.9l0,0.1
		C6.7-48.3,6.7-48.2,6.7-48.2z M6.7-44.5v0.6c0-0.1-0.1-0.2-0.1-0.3v-0.1C6.7-44.3,6.7-44.3,6.7-44.5L6.7-44.5z M6.7-42.9v0.7
		l-0.1,0L6.7-42.9L6.7-42.9z M6.7-42v0.4c0,0,0,0.1-0.1,0.1v-0.6C6.7-42,6.7-42,6.7-42z M6.7-40.1v0.4l-0.1,0.1l0,0L6.7-40.1
		L6.7-40.1L6.7-40.1z M6.7-39.4v0.7l-0.1-0.1L6.7-39.4L6.7-39.4z M6.7-38.4v0.2c0,0.1,0,0.1-0.1,0.2v-0.6
		C6.7-38.5,6.7-38.4,6.7-38.4z M6.7-37.6v0.2C6.7-37.4,6.7-37.5,6.7-37.6z M6.7-34v0.6c0,0,0,0.1,0,0.1l0,0.1v-0.9
		C6.7-34.2,6.7-34.1,6.7-34z M6.7-28.1v0.4l-0.1,0.1L6.7-28.1L6.7-28.1z M6.7-43.2v-0.4c0,0.1,0,0.1,0,0.2
		C6.7-43.3,6.7-43.2,6.7-43.2z M6.7-26.1c0-0.1,0-0.1,0-0.2l0,0c-0.1,0-0.1,0.1-0.2,0.1v-0.4c0.1,0,0.2-0.1,0.3-0.2L6.7-26.1
		L6.7-26.1z M6.4-29.5c0.1-0.1,0.2-0.2,0.3-0.3v0.4c-0.1,0.1-0.2,0.2-0.2,0.2l-0.1,0.1V-29.5z M6.7-34.8c-0.1,0-0.2-0.1-0.3-0.1
		v-0.7c0.1,0,0.2,0.1,0.3,0.1V-34.8z M6.4-46.7c0.1,0,0.2-0.1,0.3-0.1v0.7c-0.1,0-0.2,0.1-0.3,0.1V-46.7z M6.7-51.9
		c-0.1-0.1-0.2-0.2-0.3-0.3v-0.5l0.1,0.1c0.1,0.1,0.2,0.1,0.2,0.2V-51.9z M6.4-55.6c0.1,0,0.2,0.1,0.2,0.1l0,0c0-0.1,0-0.1,0-0.2
		v0.6c-0.1-0.1-0.2-0.1-0.3-0.2L6.4-55.6L6.4-55.6z M6.7-54.1v0.4c-0.1-0.1-0.2-0.2-0.3-0.2v-0.6C6.5-54.4,6.6-54.2,6.7-54.1z
		 M6.7-48.4v0.9c-0.1,0.1-0.2,0.2-0.3,0.3v-1.6C6.5-48.6,6.6-48.5,6.7-48.4z M6.7-44.2L6.7-44.2L6.7-44.2z M6.7-43.6v0.4
		c-0.1,0.1-0.2,0.3-0.3,0.3v-1.1C6.5-43.8,6.6-43.7,6.7-43.6z M6.7-42.9c-0.1,0-0.1,0.1-0.1,0.2c-0.1,0.2,0,0.4,0.1,0.5V-42.9z
		 M6.7-42.1v0.6c-0.1,0.1-0.2,0.1-0.3,0.1v-0.8C6.5-42.2,6.6-42.1,6.7-42.1z M6.7-40.2v0.6c-0.1,0.1-0.2,0.1-0.3,0.1v-0.8
		C6.5-40.3,6.6-40.2,6.7-40.2z M6.7-39.4v0.6c-0.1-0.1-0.2-0.3-0.1-0.5C6.6-39.3,6.6-39.3,6.7-39.4z M6.7-38.6
		c-0.1-0.1-0.2-0.2-0.3-0.2v1.1c0.1,0,0.2-0.1,0.3-0.2V-38.6z M6.7-34.2v0.9C6.6-33.2,6.5-33,6.4-33v-1.6
		C6.5-34.5,6.6-34.4,6.7-34.2z M6.7-28v0.4c-0.1,0.1-0.2,0.2-0.3,0.4v-0.6C6.5-27.8,6.6-27.9,6.7-28z M6.4-40.4v-0.7
		c0.1,0,0.2,0.1,0.2,0.2C6.6-40.8,6.6-40.5,6.4-40.4z M6.4-26.1C6.2-26,6-26,5.8-26.2c-0.1-0.1-0.1-0.1-0.1-0.2v-0.3
		c0-0.1,0.1-0.2,0.1-0.3c0-0.1,0.1-0.1,0.1-0.2c-0.1,0-0.1,0.1-0.2,0.1v-0.3c0.2-0.1,0.4-0.2,0.7-0.4v0.6c-0.3,0.4-0.4,0.7-0.3,0.8
		c0.1,0.1,0.2,0,0.3-0.1V-26.1z M5.7-28.8c0,0,0.1-0.1,0.1-0.1c0.1-0.1,0.3-0.3,0.4-0.4c0.1-0.1,0.1-0.1,0.2-0.2v0.5
		c-0.2,0.2-0.5,0.5-0.7,0.8L5.7-28.8L5.7-28.8z M6.4-34.9c-0.2-0.1-0.4-0.2-0.7-0.3v-0.7c0.2,0.1,0.4,0.2,0.7,0.3V-34.9z M5.7-46.4
		c0.2-0.1,0.4-0.2,0.7-0.3v0.7c-0.2,0.1-0.5,0.2-0.7,0.3V-46.4z M6.4-52.2c-0.1-0.1-0.1-0.1-0.2-0.2c-0.1-0.1-0.3-0.3-0.4-0.4
		c0,0-0.1-0.1-0.1-0.1v-0.6c0.2,0.3,0.4,0.6,0.7,0.8L6.4-52.2L6.4-52.2z M5.7-54.6c0.1,0,0.2,0.1,0.2,0.1c0-0.1-0.1-0.1-0.1-0.2
		c-0.1-0.1-0.1-0.2-0.1-0.3v-0.3c0-0.1,0.1-0.1,0.1-0.2c0.2-0.2,0.4-0.1,0.6-0.1v0.4c-0.2-0.1-0.3-0.1-0.3-0.1
		c-0.1,0.1,0.1,0.4,0.3,0.8v0.6c-0.2-0.2-0.5-0.3-0.7-0.4V-54.6z M6.4-48.7v1.6C6.3-47,6.2-47,6.1-47c-0.1,0.1-0.3,0.1-0.4,0.1v-0.5
		c0.1,0,0.2,0,0.3,0c0.3-0.1,0.4-0.5,0.3-0.7c-0.1-0.2-0.3-0.4-0.6-0.4v-0.5C5.9-48.9,6.2-48.9,6.4-48.7z M6.4-43.9v1.1
		c-0.1,0-0.2,0.1-0.3,0.1c-0.1,0-0.3-0.1-0.4-0.1v-0.9C5.8-43.9,5.9-44,6.1-44C6.2-44,6.3-43.9,6.4-43.9z M6.4-42.2v0.8
		c-0.2,0-0.4-0.2-0.4-0.4C6-42,6.1-42.2,6.4-42.2z M6.4-41.2v0.7l0,0c-0.2,0.1-0.4,0-0.5-0.2c-0.1-0.2,0-0.4,0.2-0.5
		C6.1-41.2,6.3-41.2,6.4-41.2z M6.4-40.3v0.8c-0.1,0-0.2,0-0.3-0.1c-0.2-0.2-0.2-0.4,0-0.6C6.2-40.2,6.3-40.3,6.4-40.3z M6.4-38.8
		v1.1c-0.1,0-0.1,0-0.2,0c-0.2,0-0.3-0.1-0.4-0.2v-0.8c0.1-0.1,0.3-0.2,0.4-0.2C6.2-38.9,6.3-38.8,6.4-38.8z M6.4-34.6v1.6
		c-0.2,0.1-0.4,0.2-0.7,0.2v-0.5c0.2,0,0.5-0.1,0.6-0.4c0.1-0.3,0-0.6-0.3-0.7c-0.1,0-0.2,0-0.3,0v-0.5c0.1,0,0.3,0,0.4,0.1
		C6.2-34.7,6.3-34.6,6.4-34.6z M5.7-38.9c0.1-0.1,0.2-0.1,0.2-0.3c0.1-0.3,0-0.6-0.2-0.7V-38.9z M5.7-41.7c0.2-0.2,0.3-0.4,0.2-0.7
		c0-0.1-0.1-0.2-0.2-0.2V-41.7z M5.7-26.3c0-0.1,0-0.2,0-0.3V-26.3z M5.7-27c-0.1,0-0.3,0-0.4,0v-1.2c0.1-0.2,0.2-0.4,0.4-0.6v0.6
		c-0.3,0.4-0.4,0.8-0.3,0.9c0.1,0.1,0.2,0,0.3,0V-27z M5.7-35.2c-0.1-0.1-0.3-0.1-0.4-0.2v-0.7c0.1,0.1,0.3,0.2,0.4,0.3V-35.2z
		 M5.3-46.2c0.1-0.1,0.3-0.2,0.4-0.2v0.7c-0.1,0.1-0.3,0.2-0.4,0.3V-46.2z M5.7-52.9c-0.1-0.2-0.3-0.4-0.4-0.6v-1.2
		c0.1,0,0.3,0,0.4,0v0.3c-0.1-0.1-0.3-0.1-0.3,0c-0.1,0.1,0,0.5,0.3,0.9V-52.9z M5.7-55.1c0-0.1,0-0.2,0-0.3V-55.1z M5.7-48.9v0.5
		c-0.1,0-0.1,0-0.2,0c-0.1,0-0.1,0.1-0.2,0.1v-0.5l0,0C5.5-48.9,5.6-48.9,5.7-48.9z M5.7-47.3v0.5c-0.1,0-0.3,0-0.4-0.1v-0.5
		C5.4-47.4,5.6-47.3,5.7-47.3z M5.7-43.8v0.9c-0.1-0.1-0.2-0.3-0.2-0.5C5.5-43.5,5.6-43.7,5.7-43.8z M5.7-42.6v0.9
		c0,0-0.1,0.1-0.2,0.1c-0.1,0-0.2,0-0.2,0v-1.2C5.5-42.8,5.6-42.7,5.7-42.6z M5.7-39.9v1c-0.1,0.1-0.2,0.1-0.4,0.1V-40
		c0.1,0,0.2,0,0.3,0C5.6-40,5.7-39.9,5.7-39.9z M5.7-38.7v0.8c-0.1-0.1-0.2-0.3-0.2-0.4C5.5-38.4,5.6-38.6,5.7-38.7z M5.7-34.8v0.5
		c-0.1,0-0.3,0.1-0.4,0.2v-0.5C5.4-34.8,5.6-34.8,5.7-34.8z M5.7-33.2v0.5c-0.1,0-0.2,0-0.4-0.1l0,0v-0.5c0.1,0.1,0.1,0.1,0.2,0.1
		C5.6-33.2,5.6-33.2,5.7-33.2z M5.3-40.3v-1.1c0.1,0,0.1,0.1,0.2,0.1c0.2,0.2,0.2,0.6,0,0.8C5.4-40.3,5.4-40.3,5.3-40.3z M5.3-27
		c-0.1,0-0.1-0.1-0.2-0.1c-0.2-0.2-0.1-0.6,0-0.9c0-0.1,0.1-0.1,0.1-0.2C5.3-28.2,5.3-27,5.3-27z M5.3-35.4
		c-0.2-0.1-0.4-0.3-0.7-0.5l-1,1v-0.5l0.7-0.7c-0.2-0.1-0.3-0.3-0.4-0.5l-0.3,0.3v-0.5l0.1-0.1l-0.1-0.1V-38
		c0.2,0.3,0.3,0.5,0.5,0.8l0.1,0.1l0,0l0.1,0.1c0.2,0.2,0.3,0.4,0.5,0.5l0.1,0.1l0,0l0.1,0.1c0.1,0.1,0.2,0.1,0.3,0.2
		C5.3-36.2,5.3-35.4,5.3-35.4z M3.7-44.7L3.7-44.7v-0.2v-0.5L4-45.1c0.1-0.2,0.3-0.3,0.4-0.4l-0.7-0.7v-0.5l1,1
		c0.2-0.2,0.4-0.3,0.7-0.5v0.7c-0.1,0.1-0.2,0.1-0.3,0.2L5-45.2l0,0l-0.1,0.1l0,0h0c-0.2,0.2-0.3,0.3-0.5,0.5l-0.1,0.1l0,0l-0.1,0.1
		c-0.2,0.2-0.4,0.5-0.5,0.8V-44.7z M5.3-53.4c0-0.1-0.1-0.1-0.1-0.2c-0.1-0.3-0.3-0.7,0-0.9c0,0,0.1-0.1,0.2-0.1
		C5.3-54.7,5.3-53.4,5.3-53.4z M5.3-48.8v0.5c-0.1,0.2-0.2,0.4-0.1,0.6c0,0.1,0.1,0.1,0.1,0.2v0.5c-0.2-0.1-0.4-0.3-0.5-0.5
		C4.6-48,4.8-48.6,5.3-48.8z M5.3-42.8v1.2c-0.2,0-0.5-0.1-0.6-0.4c-0.1-0.3,0-0.7,0.3-0.8C5.2-42.8,5.2-42.8,5.3-42.8z M5.3-41.3
		v1.1c-0.2,0.1-0.5,0.1-0.7-0.1c-0.2-0.2-0.2-0.6,0-0.8C4.8-41.4,5.1-41.4,5.3-41.3z M5.3-40v1.2c-0.1,0-0.1,0-0.2,0
		c-0.3-0.1-0.5-0.5-0.3-0.8C4.9-39.9,5.1-40,5.3-40z M5.3-34.7v0.5c0,0-0.1,0.1-0.1,0.2c-0.1,0.2,0,0.4,0.1,0.6v0.5
		c-0.5-0.2-0.7-0.8-0.5-1.3C4.9-34.4,5.1-34.6,5.3-34.7z M3.7-34.9l-0.7,0.7v-0.5l0.7-0.7V-34.9z M2.9-36l0.7-0.7v0.5l-0.7,0.7V-36z
		 M3.7-36.9c-0.3-0.4-0.5-0.8-0.7-1.2v-2.1h0h0v-0.4l0,0l0,0l0,0.1l0,0.1l0,0.1l0,0.1c0.1,0.8,0.3,1.5,0.7,2.2V-36.9z M2.9-43.6
		c0.2-0.4,0.4-0.8,0.7-1.2v1.1C3.3-43,3.1-42.3,3-41.5l0,0.1l0,0l0,0.1c0,0,0,0.1,0,0.1v0h0l0-0.1h0V-43.6z M3.7-44.9l-0.7-0.7v-0.5
		l0.7,0.7V-44.9z M2.9-47.5l0.7,0.7v0.5L2.9-47V-47.5z M3-40.2L3-40.2L3-40.2z M2.9-34.2l-0.3,0.3v-0.5l0.3-0.3V-34.2z M2.6-35.7
		L2.9-36v0.5l-0.3,0.3V-35.7z M2.9-38.1c-0.1-0.2-0.2-0.5-0.3-0.8v-1.3h0.3V-38.1z M2.6-42.8c0.1-0.3,0.2-0.5,0.3-0.8v2.3l-0.3,0
		V-42.8z M2.9-45.6L2.6-46v-0.5l0.3,0.3V-45.6z M2.6-47.8l0.3,0.3v0.5l-0.3-0.3V-47.8z M2.9-41.2H2.6v1h0.3v-0.4c0-0.1,0-0.2,0-0.3
		C2.9-40.9,2.9-41,2.9-41.2L2.9-41.2L2.9-41.2z M2.6-33.9l-0.3,0.3c-0.1,0.1-0.2,0.1-0.3,0.2c0,0.1-0.1,0.2-0.1,0.3
		C2-33,2-32.9,2.1-32.8c0.1,0.3,0.1,0.6,0.2,0.9c0,0.3,0.1,0.6,0.1,0.9c0,0.2,0,0.4,0,0.6c0,0.3-0.1,0.7-0.2,1
		c-0.1,0.2-0.2,0.5-0.5,0.6v-0.4C1.8-29.4,2-30.3,2-30.9c0-0.7-0.2-1.8-0.4-2.2v-0.1l0,0c0.1-0.1,0.1-0.4,0-0.5
		c0.1,0.1,0.3,0.1,0.5,0l0.6-0.6L2.6-33.9L2.6-33.9z M1.6-34.7v0.5l0,0l1-1v-0.5L1.6-34.7z M2.6-38.8c-0.1-0.4-0.2-0.9-0.3-1.3H1.6
		v-0.3h0.7c0-0.1,0-0.2,0-0.3c0-0.1,0-0.2,0-0.3H1.6v-0.3h0.8c0-0.5,0.1-0.9,0.3-1.4v1.6l-0.3,0h0.3v1H2.4h0.3V-38.8z M2.6-46l-1-1
		v-0.5l0,0l1,1V-46z M1.6-53v0.4C1.8-52.3,2-51.4,2-50.7c0,0.7-0.2,1.8-0.4,2.2v0.1l0,0c0.1,0.1,0.1,0.4,0,0.5C1.8-48,2-48,2.1-47.9
		l0.6,0.6v-0.5l-0.3-0.3c-0.1-0.1-0.2-0.1-0.3-0.2c0-0.1-0.1-0.2-0.1-0.3C2-48.6,2-48.8,2.1-48.9c0.1-0.3,0.1-0.6,0.2-0.9
		c0-0.3,0.1-0.6,0.1-0.9c0-0.2,0-0.4,0-0.6c0-0.3-0.1-0.7-0.2-1C2-52.6,1.8-52.9,1.6-53z M1.6-33.8L1.6-33.8L1.6-33.8L1.6-33.8z
		 M1.6-36.9c0.1,0,0.3,0,0.4-0.1c0.5-0.2,0.8-0.8,0.6-1.3c-0.2-0.4-0.5-0.6-0.9-0.6v0.5c0.2,0,0.4,0.1,0.5,0.4
		c0.1,0.3,0,0.6-0.3,0.7c-0.1,0-0.1,0-0.2,0V-36.9z M1.6-42.7c0.4,0,0.8-0.2,0.9-0.6c0.2-0.5,0-1.1-0.6-1.3
		c-0.1-0.1-0.3-0.1-0.4-0.1v0.5c0.1,0,0.1,0,0.2,0c0.3,0.1,0.4,0.5,0.3,0.7c-0.1,0.2-0.3,0.4-0.5,0.4C1.6-43.2,1.6-42.7,1.6-42.7z
		 M1.6-47.8L1.6-47.8L1.6-47.8L1.6-47.8z M1.6-28.7c0,0-0.1,0-0.2,0c-0.3,0-0.5-0.3-0.5-0.5c0,0.1,0,0.1-0.1,0.2
		c-0.1,0.2-0.2,0.4-0.3,0.5V-29c0.1-0.3,0.2-0.8,0.2-1.3c0-0.5-0.1-1.1-0.2-1.5v-0.4l0.7-0.7c-0.2,0.5-0.3,1.4-0.3,2
		c0,0.9,0.2,2,0.5,2c0.1,0,0.1,0,0.2-0.1L1.6-28.7L1.6-28.7z M0.5-34.3L0.5-34.3c0.2,0.1,0.4,0.1,0.5,0.2c0.1-0.1,0.2-0.1,0.3-0.1
		c0-0.1,0.1-0.2,0.2-0.3l0.2-0.2v0.5c-0.1,0.1-0.1,0.3,0,0.4v0c-0.1-0.1-0.3-0.1-0.5,0L1-33.7c-0.1-0.1-0.3-0.2-0.5-0.2
		C0.5-33.9,0.5-34.3,0.5-34.3z M1.6-40.2H0.5v-0.3h1.1C1.6-40.5,1.6-40.2,1.6-40.2z M0.5-41.5h1.1v0.3H0.5V-41.5z M1.6-47l-0.2-0.2
		c-0.1-0.1-0.1-0.2-0.2-0.3c-0.1,0-0.2-0.1-0.3-0.1c-0.1,0.1-0.3,0.1-0.4,0.1l-0.1,0v-0.3C0.8-47.8,1-47.9,1-48l0.1,0.1
		c0.1,0.1,0.3,0.1,0.5,0v0c-0.1,0.1-0.1,0.3,0,0.4C1.6-47.5,1.6-47,1.6-47z M0.5-53.2c0.2,0.1,0.3,0.3,0.3,0.5c0,0.1,0,0.1,0.1,0.2
		C1-52.7,1.1-53,1.4-53c0.1,0,0.1,0,0.1,0v0.4c0-0.1-0.1-0.1-0.1-0.1c-0.3,0-0.5,1.1-0.5,2c0,0.6,0.1,1.5,0.3,2l-0.8-0.8v-0.4
		c0.1-0.4,0.2-1,0.2-1.5c0-0.4-0.1-1-0.2-1.3L0.5-53.2L0.5-53.2z M1.6-48.5v0.1V-48.5L1.6-48.5z M1.6-44.8v0.5
		c-0.2,0-0.4,0.1-0.5,0.4c-0.1,0.3,0,0.6,0.3,0.7c0.1,0,0.1,0,0.2,0v0.5c-0.1,0-0.3,0-0.4-0.1c-0.5-0.2-0.8-0.8-0.6-1.3
		C0.8-44.5,1.2-44.8,1.6-44.8z M1.6-38.9v0.5c-0.1,0-0.1,0-0.2,0c-0.3,0.1-0.4,0.5-0.3,0.7c0.1,0.2,0.3,0.4,0.5,0.4v0.5
		c-0.4,0-0.8-0.2-0.9-0.6c-0.2-0.5,0-1.1,0.6-1.3C1.3-38.9,1.5-38.9,1.6-38.9z M1.6-33.3v0.1V-33.3L1.6-33.3z M0.5-33.2v-0.2
		c0.1,0,0.2,0,0.2-0.1L0.5-33.2z M0.5-48.3v-0.2l0.2,0.2C0.7-48.3,0.6-48.3,0.5-48.3z M0.5-28.5c-0.1,0-0.1,0-0.2,0
		c-0.3,0-0.5-0.3-0.5-0.6l0-0.1c-0.1,0.1-0.2,0.1-0.3,0.1c-0.3,0-0.4-0.2-0.5-0.5c0-0.2-0.1-0.4-0.1-0.5c0-0.1,0-0.1,0-0.2L-1.2-30
		c-0.2,0.2-0.4,0.3-0.7,0.5c-0.2,0.1-0.6,0.2-0.8,0c-0.2-0.2-0.1-0.5,0-0.8c0.1-0.2,0.3-0.5,0.5-0.7l0.1-0.1c-0.1,0-0.1,0-0.2,0
		c-0.2,0-0.4,0-0.5-0.1c-0.2-0.1-0.5-0.2-0.5-0.5c0-0.1,0.1-0.2,0.1-0.3l-0.1,0c-0.3-0.1-0.6-0.2-0.6-0.5c0-0.3,0.3-0.5,0.6-0.5
		c0.1,0,0.1,0,0.2-0.1c-0.3-0.1-0.5-0.2-0.5-0.5c0-0.4,0.4-0.5,0.7-0.6c0.3-0.1,0.7-0.2,1-0.2c0.2,0,0.4,0,0.6,0
		c0.3,0,0.6,0,0.9,0.1c0.3,0,0.6,0.1,0.8,0.1v0.3c-0.5-0.1-1.2-0.2-1.7-0.2c-0.9,0-2,0.2-2,0.5s1.1,0.5,2,0.5c0.5,0,1.2-0.1,1.7-0.2
		v0.2l-0.7,0.7c0-0.2-1.1-0.4-1.7-0.4c-0.6,0-1.5,0.2-1.5,0.4c0,0.2,0.9,0.4,1.5,0.4c0.5,0,1.3-0.1,1.6-0.2l-0.6,0.6
		c-0.2-0.1-0.7-0.2-1-0.2c-0.4,0-1,0.1-1,0.3c0,0.1,0.5,0.2,1,0.2c0.2,0,0.5,0,0.8-0.1l-0.2,0.2c-0.1,0.1-0.2,0.2-0.3,0.3
		c-0.5,0.5-1,1.2-0.8,1.3c0.1,0.1,0.9-0.3,1.3-0.8c0.1-0.1,0.2-0.2,0.3-0.3l0.2-0.2c-0.1,0.2-0.1,0.5-0.1,0.8c0,0.4,0.1,1,0.2,1
		c0.1,0,0.3-0.5,0.3-1c0-0.3-0.1-0.8-0.2-1l0.6-0.6C0.1-31.5,0-30.8,0-30.3c0,0.6,0.1,1.5,0.4,1.5c0.1,0,0.1-0.1,0.2-0.2L0.5-28.5
		L0.5-28.5z M0.5-40.2H-1c-0.1,0-0.2,0-0.3-0.1c-0.1,0-0.2,0.1-0.3,0.1c-0.1,0.1-0.1,0.3-0.2,0.4c-0.2,0.3-0.3,0.5-0.5,0.8
		c-0.2,0.2-0.4,0.5-0.6,0.7C-3-38.2-3.1-38.1-3.3-38c-0.3,0.2-0.6,0.4-0.9,0.6c-0.3,0.1-0.7,0.3-0.9,0c-0.2-0.2-0.1-0.5,0-0.8
		c-0.1,0-0.1,0.1-0.2,0.1c-0.2,0.1-0.6,0.2-0.8,0c-0.2-0.2-0.1-0.5,0-0.8l0,0c-0.1,0-0.2,0-0.3-0.1c-0.2-0.2-0.1-0.4,0-0.6
		c0.1-0.2,0.2-0.3,0.3-0.5c0,0,0.1-0.1,0.1-0.1c0,0-0.1,0-0.1,0c-0.3,0-0.6-0.1-0.8-0.2c-0.2-0.1-0.6-0.2-0.6-0.5
		c0-0.3,0.3-0.5,0.6-0.5c0.3-0.1,0.5-0.1,0.8-0.1c0,0,0.1,0,0.1,0c0,0-0.1-0.1-0.1-0.1c-0.1-0.1-0.2-0.3-0.3-0.5
		c-0.1-0.2-0.2-0.5,0-0.6c0.1-0.1,0.2-0.1,0.3-0.1l0,0c-0.1-0.2-0.3-0.6,0-0.8c0.2-0.2,0.5-0.1,0.8,0c0.1,0,0.1,0.1,0.2,0.1
		c-0.1-0.2-0.2-0.6,0-0.8c0.2-0.2,0.6-0.1,0.9,0c0.3,0.2,0.6,0.4,0.9,0.6c0.2,0.1,0.3,0.3,0.4,0.4c0.2,0.2,0.4,0.4,0.6,0.7
		c0.2,0.2,0.4,0.5,0.5,0.8c0.1,0.1,0.1,0.2,0.2,0.4c0.1,0,0.2,0.1,0.3,0.1c0.1,0,0.2-0.1,0.3-0.1h1.5v0.3H-1c-0.2,0-0.3,0.1-0.3,0.3
		c0-0.2-0.2-0.4-0.4-0.4h-0.1c0-0.3-0.7-1.3-1.3-1.9c-0.6-0.6-1.6-1.2-1.8-1C-5-43.9-4.4-43-3.8-42.4c0.4,0.4,1.1,1,1.6,1.2h-1.3
		c0.1-0.2-0.5-1-1-1.5c-0.5-0.5-1.2-0.9-1.3-0.8c-0.1,0.1,0.3,0.9,0.8,1.3c0.4,0.4,1,0.8,1.3,1h-0.9c-0.1-0.2-0.4-0.6-0.6-0.8
		c-0.3-0.3-0.8-0.6-0.9-0.5c-0.1,0.1,0.2,0.5,0.5,0.8c0.2,0.2,0.4,0.4,0.6,0.5h-0.2c-0.1,0-0.3,0-0.4,0c-0.7,0-1.5,0.1-1.5,0.4
		c0,0.2,0.9,0.4,1.5,0.4c0.1,0,0.2,0,0.4,0l0.2,0c-0.2,0.1-0.4,0.3-0.6,0.5c-0.3,0.3-0.6,0.8-0.5,0.8c0.1,0.1,0.6-0.2,0.9-0.5
		c0.2-0.2,0.5-0.6,0.6-0.8h0.9c-0.3,0.1-0.9,0.6-1.3,1c-0.5,0.5-1,1.2-0.8,1.3s0.9-0.3,1.3-0.8c0.5-0.5,1.1-1.3,1-1.5h1.3
		c-0.4,0.2-1.1,0.8-1.6,1.2c-0.6,0.6-1.3,1.5-1.1,1.7c0.2,0.2,1.2-0.4,1.8-1c0.6-0.6,1.3-1.6,1.3-1.9h0.1c0.2,0,0.4-0.2,0.4-0.4
		c0,0.2,0.1,0.3,0.3,0.3h1.5L0.5-40.2L0.5-40.2z M0.5-47.4c-0.3,0.1-0.6,0.1-0.8,0.1c-0.3,0-0.6,0.1-0.9,0.1c-0.2,0-0.4,0-0.6,0
		c-0.3,0-0.7-0.1-1-0.2c-0.3-0.1-0.7-0.3-0.7-0.6c0-0.3,0.3-0.5,0.5-0.5c-0.1,0-0.1,0-0.2-0.1c-0.2-0.1-0.6-0.2-0.6-0.5
		c0-0.3,0.3-0.5,0.6-0.5l0.1,0c-0.1-0.1-0.1-0.2-0.1-0.3c0-0.3,0.2-0.4,0.5-0.5c0.2,0,0.4-0.1,0.5-0.1c0.1,0,0.1,0,0.2,0l-0.1-0.1
		c-0.2-0.2-0.3-0.4-0.5-0.7c-0.1-0.2-0.2-0.6,0-0.8c0.2-0.2,0.5-0.1,0.8,0c0.2,0.1,0.5,0.3,0.7,0.5l0.1,0.1c0-0.1,0-0.1,0-0.2
		c0-0.2,0-0.4,0.1-0.5c0.1-0.2,0.2-0.5,0.4-0.5c0.1,0,0.2,0.1,0.3,0.1l0-0.1c0.1-0.3,0.2-0.6,0.5-0.6c0.1,0,0.1,0,0.2,0v0.5
		c-0.1-0.1-0.1-0.2-0.2-0.2c-0.2,0-0.4,0.9-0.4,1.5c0,0.5,0.1,1.3,0.2,1.6l-0.6-0.6c0.1-0.2,0.2-0.7,0.2-1c0-0.4-0.1-1-0.3-1
		c-0.1,0-0.2,0.5-0.2,1c0,0.2,0,0.5,0.1,0.8l-0.2-0.2C-0.9-50.9-1-51-1.1-51.1c-0.5-0.5-1.2-1-1.3-0.8c-0.1,0.1,0.3,0.9,0.8,1.3
		c0.1,0.1,0.2,0.2,0.3,0.3l0.2,0.2c-0.2,0-0.5-0.1-0.8-0.1c-0.4,0-1,0.1-1,0.2c0,0.1,0.5,0.3,1,0.3c0.3,0,0.8-0.1,1-0.2l0.6,0.6
		c-0.3-0.1-1.1-0.2-1.6-0.2c-0.6,0-1.5,0.2-1.5,0.4c0,0.2,0.9,0.4,1.5,0.4c0.6,0,1.7-0.2,1.7-0.4l0.7,0.7v0.2
		c-0.5-0.1-1.2-0.2-1.7-0.2c-0.9,0-2,0.2-2,0.5s1.1,0.5,2,0.5c0.5,0,1.2-0.1,1.7-0.2V-47.4z M0.5-49.9c-0.1,0.2-0.1,0.2-0.2,0.3
		l0.2,0.2V-49.9z M0.5-32.2L0.3-32c0.1,0,0.1,0.1,0.2,0.3V-32.2z"/>
</g>
</svg>
