<?xml version="1.0" encoding="utf-8"?>
<!-- Generator: Adobe Illustrator 18.1.1, SVG Export Plug-In . SVG Version: 6.00 Build 0)  -->
<svg version="1.1" id="svg-source" xmlns="http://www.w3.org/2000/svg" xmlns:xlink="http://www.w3.org/1999/xlink" x="0px" y="0px"
	 viewBox="75.6 -72.9 58.5 54" enable-background="new 75.6 -72.9 58.5 54" xml:space="preserve">
<g id="snowflake">
	<path d="M116.5-49.2c-0.3-0.1-0.7-0.2-1-0.2c-0.3-0.1-0.6-0.1-1-0.2c0,0-0.1-0.1-0.1-0.1c0,0,0-0.1,0.1-0.1c0.3-0.2,0.7-0.3,1-0.5
		c0.2-0.1,0.4-0.3,0.4-0.5c0.1-0.6-0.4-1.1-1-0.9c-0.5,0.2-0.9,0.4-1.3,0.6c-0.2,0.1-0.4,0.2-0.6,0.3c0,0-0.1-0.1-0.1-0.1
		c0-0.1,0-0.3,0-0.4c0.2-0.9,0.3-1.8,0.5-2.7c0.1-0.4-0.1-0.7-0.4-0.8c-0.3-0.1-0.6-0.1-0.8,0.3c-0.2,0.3-0.3,0.6-0.4,1
		c-0.4,1.3-0.8,2.6-1.2,3.9c-0.1,0.2-0.2,0.4-0.4,0.5c-1.3,0.8-2.5,1.7-3.7,2.5c-0.2,0.2-0.3,0.2-0.5,0c-0.6-0.6-1.2-1.1-2-1.3
		c-0.4-0.1-0.4-0.2-0.4-0.6c0-0.2,0-0.3,0-0.5c0-1.2,0-2.4,0-3.6c0-0.3,0.1-0.6,0.4-0.7c0.2-0.1,0.3-0.3,0.4-0.4
		c0.2-0.2,0.4-0.5,0.6-0.7c0.7-0.7,1.4-1.3,2-2c0.1-0.1,0.3-0.3,0.4-0.4c0.3-0.3,0.3-0.6,0-1c-0.2-0.3-0.6-0.4-0.9-0.3
		c-0.2,0.1-0.3,0.2-0.5,0.3c-0.4,0.3-0.7,0.6-1.1,0.9c-0.4,0.3-0.7,0.6-1.1,0.9c-0.1,0.1-0.3,0-0.3-0.1c0-0.2,0-0.4,0-0.6
		c0-0.8,0.1-1.7,0.1-2.5c0-0.8-0.2-0.9-1-0.8c-0.2,0-0.4,0.2-0.4,0.3c-0.1,0.2-0.1,0.4-0.1,0.6c0,0.5,0,1-0.1,1.6
		c0,0.3,0.1,0.7-0.1,1c-0.4,0-0.6-0.4-0.9-0.6c-0.4-0.2-0.7-0.5-1-0.8c-0.2-0.2-0.4-0.3-0.7-0.4c-0.2-0.1-0.3,0-0.5,0
		c-0.5,0.2-0.7,0.8-0.4,1.2c0.1,0.1,0.1,0.2,0.2,0.2c0.6,0.6,1.2,1.2,1.9,1.9c0.2,0.2,0.3,0.3,0.5,0.5c0.5,0.4,0.6,0.9,0.5,1.5
		c-0.1,0.5-0.1,1.1-0.2,1.7c-0.1,1-0.1,2.1-0.2,3.1c0,0.2-0.1,0.3-0.3,0.3c-0.7,0-1.4,0.3-2,0.7c-0.3,0.2-0.3,0.2-0.6-0.1
		c-0.9-0.8-1.9-1.6-2.9-2.3c-0.3-0.2-0.6-0.4-0.9-0.6c-0.3-0.2-0.4-0.4-0.4-0.7c0-1.1-0.1-2.1-0.2-3.2c0-0.2,0-0.4,0-0.6
		c-0.1-0.3-0.3-0.6-0.6-0.7c-0.3-0.1-0.7,0.2-0.9,0.5c-0.1,0.2-0.1,0.4-0.2,0.5c0,0.1,0,0.3,0,0.4c-0.1,0.5-0.1,1-0.2,1.6
		c0,0.2-0.1,0.2-0.3,0.1c-0.2-0.1-0.4-0.3-0.6-0.4c-0.4-0.3-0.7-0.6-1.1-0.8c-0.4-0.2-0.7-0.5-1.2-0.4c-0.4,0-0.7,0.3-0.6,0.7
		c0,0.2,0.1,0.4,0.2,0.5c0.2,0.3,0.4,0.5,0.6,0.7c0.5,0.5,1.1,0.9,1.6,1.4c0.1,0.1,0.1,0.3,0,0.3c-0.8,0.2-1.6,0.7-2.5,0.9
		c-0.1,0-0.2,0.1-0.3,0.1c-0.3,0.2-0.5,0.4-0.4,0.8c0,0.3,0.3,0.5,0.6,0.6c0.3,0,0.6,0.1,0.9,0c0.9-0.2,1.8-0.3,2.6-0.7
		c0.2-0.1,0.4-0.2,0.6-0.2c0.4-0.1,0.7-0.1,1.1,0.2c1.1,0.8,2.3,1.5,3.5,2.1c0.1,0,0.1,0.1,0.2,0.1c0.3,0.2,0.4,0.3,0.3,0.6
		C97-45.2,97-44.4,97-43.6c0,0.1,0,0.1,0,0.2c0,0.2-0.1,0.5-0.3,0.6c-0.7,0.5-1.5,1-2.2,1.5c-0.3,0.2-0.5,0.2-0.8,0.2
		c-0.6,0-1.1,0.1-1.7,0.1c-0.6,0-1.1-0.2-1.7-0.3c-0.2,0-0.5,0-0.7-0.1c-0.5-0.2-1,0-1.6,0.1c-0.3,0-0.6,0.2-0.8,0.5
		c-0.2,0.2-0.3,0.4-0.2,0.7c0.1,0.3,0.3,0.5,0.6,0.6c0.2,0,0.5,0.1,0.7,0c0.8-0.1,1.5,0.1,2.2,0.2c0,0,0.1,0.1,0.1,0.1
		c0,0.1,0,0.1-0.1,0.2c-0.1,0.1-0.3,0.2-0.4,0.3c-0.6,0.3-1.1,0.7-1.7,1c-0.5,0.3-0.7,0.7-0.7,1.2c0,0.5,0.2,0.7,0.7,0.7
		c0.2,0,0.5-0.1,0.7-0.2c0.3-0.1,0.6-0.3,0.8-0.5c0.4-0.3,0.9-0.5,1.4-0.8c0.1-0.1,0.2,0,0.2,0.2c0,0.3,0,0.7,0,1c0,0.2,0,0.5,0,0.7
		c0,0.4,0.2,0.7,0.5,0.9c0.2,0.2,0.6,0.2,0.8,0c0.3-0.2,0.4-0.5,0.5-0.8c0.1-0.4,0.1-0.8,0.2-1.3c0-0.5,0-1,0-1.5
		c0-0.3,0.1-0.5,0.4-0.7c1.3-0.7,2.5-1.5,3.8-2.2c0.3-0.2,0.3-0.2,0.5,0.1c0.6,0.8,1.4,1.2,2.4,1.4c0.1,0,0.1,0,0.2,0
		c0.1,0,0.2,0.1,0.2,0.3c0,0.4,0,0.7-0.1,1.1c0,0.5-0.1,1-0.1,1.5c-0.1,0.7-0.1,1.4-0.1,2c0,0.2-0.1,0.4-0.2,0.5
		c-0.2,0.2-0.3,0.3-0.5,0.5c-0.6,0.6-1.1,1.2-1.7,1.7c-0.2,0.2-0.4,0.5-0.4,0.9c-0.1,0.5,0.2,0.9,0.7,1c0.5,0.1,0.9-0.2,1.2-0.5
		c0.2-0.2,0.4-0.5,0.8-0.6c0.3,0.3,0.1,0.7,0.1,1c0,0.5,0.1,0.9,0.2,1.3c0.1,0.3,0.4,0.6,0.7,0.6c0.4,0,0.6-0.2,0.8-0.5
		c0-0.1,0.1-0.2,0.1-0.3c0.1-0.4,0.1-0.8,0.2-1.2c0-0.6,0-1.2,0.1-1.8c0,0,0.1-0.1,0.1-0.1c0.1,0,0.2,0.1,0.2,0.1
		c0.5,0.4,1,0.8,1.6,1.2c0.3,0.2,0.6,0.3,1,0.4c0.7,0,1.1-0.8,0.7-1.3c-0.2-0.2-0.3-0.5-0.6-0.7c-0.9-0.6-1.7-1.4-2.6-1.9
		c-0.3-0.1-0.4-0.3-0.4-0.6c0-0.5,0-1,0-1.6c0.1-0.8,0.1-1.7,0.2-2.7c0-0.2,0.1-0.3,0.3-0.4c0.3-0.1,0.7-0.3,1-0.4
		c0.7-0.4,1.3-0.9,1.7-1.6c0.2-0.3,0.3-0.3,0.6-0.1c0.5,0.4,1.2,0.7,1.8,1c0.6,0.3,1.2,0.5,1.8,0.8c0.4,0.2,0.6,0.4,0.6,0.9
		c-0.1,1.2,0.3,2.3,0.7,3.3c0.1,0.3,0.3,0.6,0.5,0.9c0.2,0.3,0.6,0.3,0.9,0.2c0.3-0.1,0.5-0.4,0.5-0.7c0-0.2-0.1-0.4-0.1-0.6
		c-0.3-0.6-0.5-1.2-0.7-1.8c-0.1-0.2-0.1-0.5-0.1-0.7c0-0.1,0.2-0.2,0.3-0.2c0.2,0.1,0.5,0.3,0.7,0.4c0.5,0.2,1,0.4,1.5,0.5
		c0.1,0,0.3-0.1,0.3-0.1c0.1-0.1,0.1-0.2,0-0.4c-0.4-0.7-0.9-1.4-1.6-1.9c-0.1-0.1-0.3-0.1-0.2-0.3c0-0.1,0.1-0.1,0.2-0.2
		c0.3-0.1,0.6-0.2,0.9-0.3c0.5-0.1,1.1-0.3,1.6-0.5c0.3-0.1,0.5-0.4,0.5-0.8c0-0.4-0.4-0.7-0.7-0.7c-0.3,0-0.6,0-0.9,0.1
		c-0.6,0.1-1.1,0.3-1.7,0.5c-0.5,0.2-1.1,0.3-1.5,0.6c-0.2,0.1-0.4,0.1-0.5,0c-1.1-0.5-2.1-1-3.2-1.5c-0.4-0.2-0.9-0.4-1.4-0.6
		c-0.3-0.5,0-1-0.2-1.5c0-0.1,0-0.1,0-0.2c0-0.1,0.1-0.3,0.2-0.3c1.3-0.5,2.3-1.3,3.5-1.9c0.5-0.3,1-0.5,1.4-0.9
		c0.3-0.2,0.6-0.3,1,0c0.4,0.3,0.8,0.4,1.3,0.5c0.8,0.2,1.5,0.3,2.3,0.5c0.2,0,0.3,0,0.5,0c0.2,0,0.4-0.2,0.5-0.4
		C117.3-48.3,117.1-49,116.5-49.2z M104.5-43.6c-0.4,0.8-1,1.3-1.7,1.6c-1.2,0.5-2.7,0.2-3.5-1.1c-0.1-0.2-0.1-0.4-0.1-0.6
		c0.1-0.6,0.3-1.1,0.5-1.7c0.2-0.6,0.6-0.9,1.2-0.9c0.3,0,0.6,0,1,0v0c0.3,0,0.7,0,1,0c0.6,0.1,1.1,0.3,1.4,0.7
		C104.8-45,104.9-44.3,104.5-43.6z"/>
</g>
<g id="snowflake1">
	<g>
		<g>
			<rect x="21.2" y="-63.3" fill="#58BBE7" width="1.3" height="22.7"/>
			<g>
				<polygon fill="#58BBE7" points="22.7,-59.2 21.8,-58.3 18.1,-62.1 19,-63 				"/>
				
					<rect x="22.6" y="-63.3" transform="matrix(-0.7071 -0.7071 0.7071 -0.7071 82.5624 -87.0876)" fill="#58BBE7" width="1.3" height="5.3"/>
			</g>
			<g>
				<polygon fill="#58BBE7" points="22.7,-54.9 21.8,-54 16.7,-59.1 17.6,-60 				"/>
				<polygon fill="#58BBE7" points="26.1,-60 27,-59.1 21.8,-54 20.9,-54.9 				"/>
			</g>
		</g>
		<g>
			<rect x="21.2" y="-42.7" fill="#58BBE7" width="1.3" height="11.5"/>
			<g>
				<polygon fill="#58BBE7" points="22.7,-35.3 21.8,-36.2 18.1,-32.5 19,-31.6 				"/>
				
					<rect x="22.6" y="-36.5" transform="matrix(-0.7071 0.7071 -0.7071 -0.7071 15.7225 -74.2924)" fill="#58BBE7" width="1.3" height="5.3"/>
			</g>
			<g>
				<polygon fill="#58BBE7" points="22.7,-39.6 21.8,-40.5 16.7,-35.4 17.6,-34.5 				"/>
				<polygon fill="#58BBE7" points="26.1,-34.5 27,-35.4 21.8,-40.5 20.9,-39.6 				"/>
			</g>
		</g>
		<g>
			
				<rect x="16.9" y="-60.8" transform="matrix(0.5001 -0.866 0.866 0.5001 51.8333 -9.7079)" fill="#58BBE7" width="1.3" height="22.1"/>
			<g>
				<polygon fill="#58BBE7" points="11.9,-54 12.2,-52.8 7.1,-51.4 6.8,-52.6 				"/>
				
					<rect x="10.3" y="-57.8" transform="matrix(-0.9661 0.2583 -0.2583 -0.9661 7.2566 -111.3194)" fill="#58BBE7" width="1.3" height="5.3"/>
			</g>
			<g>
				
					<rect x="11.7" y="-53.9" transform="matrix(-0.2576 -0.9662 0.9662 -0.2576 64.1052 -51.3355)" fill="#58BBE7" width="1.3" height="7.3"/>
				
					<rect x="13.8" y="-57.6" transform="matrix(-0.9659 0.259 -0.259 -0.9659 14.4259 -109.8425)" fill="#58BBE7" width="1.3" height="7.3"/>
			</g>
		</g>
		<g>
			
				<rect x="30.1" y="-47.9" transform="matrix(0.5001 -0.866 0.866 0.5001 51.8265 5.5358)" fill="#58BBE7" width="1.3" height="11.5"/>
			<g>
				
					<rect x="32.1" y="-42" transform="matrix(0.9661 -0.258 0.258 0.9661 11.2532 7.1039)" fill="#58BBE7" width="1.3" height="5.3"/>
				
					<rect x="33.5" y="-44.5" transform="matrix(0.2589 0.9659 -0.9659 0.2589 -15.0904 -63.9448)" fill="#58BBE7" width="1.3" height="5.3"/>
			</g>
			<g>
				<polygon fill="#58BBE7" points="28.9,-44.2 27.6,-43.9 29.5,-36.9 30.7,-37.2 				"/>
				<polygon fill="#58BBE7" points="35,-44.6 34.7,-45.8 27.6,-43.9 28,-42.7 				"/>
			</g>
		</g>
		<g>
			<polygon fill="#58BBE7" points="26.7,-50.6 27.3,-49.5 8.4,-38.5 7.7,-39.7 			"/>
			<g>
				
					<rect x="10.4" y="-41.8" transform="matrix(-0.966 -0.2587 0.2587 -0.966 31.873 -74.1376)" fill="#58BBE7" width="1.3" height="5.3"/>
				<polygon fill="#58BBE7" points="6.9,-41.7 7.2,-43 12.3,-41.6 12,-40.3 				"/>
			</g>
			<g>
				
					<rect x="13.9" y="-44" transform="matrix(-0.9659 -0.259 0.259 -0.9659 39.0653 -75.6331)" fill="#58BBE7" width="1.3" height="7.3"/>
				
					<rect x="11.8" y="-47.7" transform="matrix(-0.2593 0.9658 -0.9658 -0.2593 -26.9101 -67.4947)" fill="#58BBE7" width="1.3" height="7.3"/>
			</g>
		</g>
		<g>
			
				<rect x="30.2" y="-58" transform="matrix(-0.5003 -0.8658 0.8658 -0.5003 91.448 -51.6705)" fill="#58BBE7" width="1.3" height="11.5"/>
			<g>
				
					<rect x="33.6" y="-55.2" transform="matrix(0.2587 -0.966 0.966 0.2587 76.1374 -5.8974)" fill="#58BBE7" width="1.3" height="5.3"/>
				<polygon fill="#58BBE7" points="34.1,-57.4 32.9,-57.8 31.5,-52.6 32.7,-52.3 				"/>
			</g>
			<g>
				<polygon fill="#58BBE7" points="28.1,-51.7 27.7,-50.5 34.8,-48.6 35.1,-49.8 				"/>
				
					<rect x="28.7" y="-57.5" transform="matrix(0.9659 0.2589 -0.2589 0.9659 -12.9339 -9.4188)" fill="#58BBE7" width="1.3" height="7.3"/>
			</g>
		</g>
		
			<rect x="21.2" y="-54.6" transform="matrix(-0.8744 -0.4853 0.4853 -0.8744 63.9448 -78.2427)" fill="#58BBE7" width="1.3" height="14.4"/>
		<polygon fill="#58BBE7" points="28.3,-47.8 28.3,-46.6 14.8,-46.4 14.8,-47.7 		"/>
		
			<rect x="21.2" y="-54.6" transform="matrix(0.8744 -0.4851 0.4851 0.8744 25.7342 4.6491)" fill="#58BBE7" width="1.3" height="14.4"/>
	</g>
</g>
</svg>
